<svg width="39" height="39" viewBox="0 0 39 39" fill="none" xmlns="http://www.w3.org/2000/svg">
<path d="M10.3119 10.0508C10.3119 11.3944 10.7112 11.7824 11.7547 12.6326C12.5559 13.2855 13.2603 14.0623 13.9906 14.7926C14.2139 15.0159 15.5217 17.0768 15.3743 15.8388C15.1737 14.1538 14.2534 12.2274 13.4253 10.7511C13.0727 10.1226 12.5146 9.07127 11.6787 8.98768C10.9957 8.91937 11.2231 9.96872 11.2231 10.3967C11.2231 11.045 12.3004 11.8011 12.6575 12.3204C13.119 12.9917 13.8012 13.5371 14.1846 14.2273C14.4192 14.6496 14.5447 15.2433 14.8681 15.6026C15.2569 16.0346 16.083 16.5713 16.083 17.1888C16.083 17.7158 13.9362 17.3632 13.6868 16.615C13.6598 16.5339 14.9725 17.1176 15.2984 17.1719C16.0079 17.2902 16.8056 17.1888 17.5258 17.1888C18.0523 17.1888 18.3415 16.9808 18.8167 16.7669C19.1812 16.6029 19.6721 16.8439 20.0317 16.8766C21.1093 16.9746 21.9199 17.1239 22.951 16.7669C23.3201 16.6392 24.238 16.0121 24.5035 16.3535C24.7032 16.6102 24.4445 16.9099 24.8916 16.885C25.5633 16.8477 26.3995 15.5869 26.79 15.1385C27.4415 14.3905 28.3437 13.4962 28.6884 12.5482C28.7879 12.2746 30.2212 10.3545 29.4225 10.3545C28.5816 10.3545 27.7406 10.3545 26.8997 10.3545C26.2777 10.3545 25.6702 10.6359 25.0435 10.6583C22.8747 10.7357 20.6918 10.7393 18.5299 10.8101C17.4326 10.8461 16.3422 11.2764 15.2309 11.1055C14.557 11.0018 14.0941 9.93732 14.7668 10.422C16.1313 11.4053 17.4137 11.7039 19.0024 12.1011C19.7934 12.2988 21.5504 12.249 21.5504 13.3582C21.5504 13.638 21.5477 14.2263 21.1876 14.2863C19.4987 14.5678 16.8044 12.995 15.9312 15.0035C15.8185 15.2627 15.5169 16.3608 16.0662 16.2438C17.6619 15.9037 19.152 14.9862 20.5717 14.2188C21.3575 13.7941 21.9019 13.0265 22.8413 12.9448C23.9437 12.8489 25.0917 12.6627 26.191 12.6326C26.3631 12.6279 27.0486 12.5165 26.9503 12.8604C26.6687 13.846 25.6405 14.6716 24.7819 15.1385C24.0603 15.531 23.2378 15.753 22.546 16.1932C22.4965 16.2247 22.2818 16.4125 22.2339 16.4125C22.1003 16.4125 23.4015 15.0128 23.4404 14.9782C24.3848 14.1387 25.4647 13.4691 26.4103 12.6326C26.817 12.2728 27.9838 11.3261 27.9038 10.7258C27.7316 9.43459 24.218 9.89891 23.3392 9.89891C21.7573 9.89891 20.2407 10.3233 18.6817 10.3545C17.4191 10.3798 16.3739 10.2214 15.1549 10.0339C14.7409 9.97022 13.9872 9.49733 13.6193 9.86516C13.1422 10.3423 13.3661 11.8511 13.3409 12.4807C13.2922 13.6989 13.2449 14.8734 12.7418 15.9738C11.3816 18.9493 17.0782 18.4038 18.7577 18.4038C20.0022 18.4038 21.4643 18.5864 22.7064 18.3953C23.4845 18.2756 24.02 17.4925 24.8916 17.4925" stroke="white" stroke-width="3" stroke-linecap="round"/>
<path d="M25.2688 21.125C26.4875 21.125 27.56 20.4587 28.1125 19.4513L33.93 8.905C34.5313 7.8325 33.7513 6.5 32.5163 6.5H8.46625L6.93875 3.25H1.625V6.5H4.875L10.725 18.8337L8.53125 22.7987C7.345 24.9762 8.905 27.625 11.375 27.625H30.875V24.375H11.375L13.1625 21.125H25.2688ZM10.01 9.75H29.7538L25.2688 17.875H13.8613L10.01 9.75ZM11.375 29.25C9.5875 29.25 8.14125 30.7125 8.14125 32.5C8.14125 34.2875 9.5875 35.75 11.375 35.75C13.1625 35.75 14.625 34.2875 14.625 32.5C14.625 30.7125 13.1625 29.25 11.375 29.25ZM27.625 29.25C25.8375 29.25 24.3913 30.7125 24.3913 32.5C24.3913 34.2875 25.8375 35.75 27.625 35.75C29.4125 35.75 30.875 34.2875 30.875 32.5C30.875 30.7125 29.4125 29.25 27.625 29.25Z" fill="black"/>
</svg>
