<svg width="49" height="49" viewBox="0 0 49 49" fill="none" xmlns="http://www.w3.org/2000/svg">
<path d="M36.7038 32.4502C35.554 31.4664 34.448 29.9938 32.7894 29.8833C31.4288 29.7926 30.0126 29.8339 28.6549 29.8922C27.8477 29.9268 26.8085 29.8815 26.0583 30.2253C25.9736 30.2641 25.9407 30.3092 25.8768 30.3622C25.5405 30.6405 25.0068 30.7284 24.6305 30.963C24.4685 31.064 24.3751 31.1738 24.2468 31.3021C23.8701 31.6787 23.1545 31.885 22.6822 32.0873C21.8577 32.4407 21.0526 32.7003 20.261 33.1224C20.1599 33.1764 20.0477 33.2385 19.9814 33.3366C19.7063 33.7442 19.4338 33.7546 18.8779 33.7887C17.0765 33.8995 15.1535 33.4535 13.4377 34.1635C12.9437 34.3679 11.8279 34.6909 11.8077 35.4187C11.8057 35.4889 11.7789 35.6422 11.8077 35.7043C11.9519 36.0154 13.1981 35.5306 13.3603 35.4723C14.2656 35.1466 15.1524 34.7435 16.0373 34.3658C16.5665 34.1399 17.1139 33.9065 17.5692 33.5478C18.3505 32.9322 18.8599 31.9884 19.7435 31.4984C20.2164 31.2361 20.7673 30.9657 21.314 31.1236C21.5826 31.2012 22.4289 31.6529 21.8583 31.891C20.575 32.4267 19.0218 32.6129 17.6435 32.5097C16.4225 32.4183 15.2269 32.099 14.0117 31.9565C13.9186 31.9455 12.8178 31.7063 12.7833 31.9565C12.7559 32.1553 13.238 32.3651 13.3514 32.4264C13.8234 32.6814 14.3031 32.9023 14.7107 33.2593C15.3032 33.7782 15.8142 34.3988 16.3853 34.9428C16.4253 34.9809 16.5427 35.1511 16.6084 35.1689C16.8972 35.2469 17.2705 35.2336 17.5662 35.2254C17.6838 35.2221 17.9373 35.2183 18.0243 35.1064C18.0458 35.0787 17.9582 35.0779 17.9231 35.0767C17.5023 35.0619 17.0829 35.0614 16.662 35.038C15.4876 34.9727 14.3255 34.885 13.1491 34.9726C12.78 35 12.2166 34.9888 11.8731 35.1808C11.7649 35.2412 11.8019 35.4573 11.8166 35.5526C12.0136 36.8331 13.3706 36.753 14.3538 36.6739C16.8751 36.4711 19.3768 36.057 21.9089 36.0017C22.7416 35.9835 23.5272 36.0626 24.3479 36.1623C24.4307 36.1724 24.983 36.2813 25.0588 36.1802C25.2622 35.9091 24.974 35.0957 24.9071 34.8179C24.8189 34.4516 24.6925 34.0531 24.3479 33.8482C23.9325 33.6012 23.402 33.5231 22.9291 33.4824C22.7718 33.4688 22.319 33.3908 22.1528 33.4675C22.1061 33.489 22.2422 33.519 22.2896 33.5389C22.6639 33.6957 23.0407 33.8432 23.3991 34.0356C23.862 34.2841 24.1656 34.5819 24.4848 34.9845C24.5654 35.0862 24.6597 35.1749 24.7406 35.2759C24.8766 35.446 24.6216 34.8513 24.6216 34.6335C24.6216 34.1408 24.7885 33.6343 25.038 33.2117C25.2045 32.9298 25.5194 32.8244 25.8024 32.6941C25.9821 32.6114 26.1569 32.5241 26.3319 32.4324C26.3565 32.4195 26.6177 32.3784 26.6026 32.4205C26.5557 32.5508 26.354 32.5455 26.2218 32.587C25.5845 32.7873 24.9324 32.9451 24.2855 33.1105C23.334 33.354 22.3814 33.5682 21.4092 33.7114C21.2996 33.7275 20.9301 33.7205 20.8143 33.8006C20.6089 33.9428 21.3143 33.8224 21.5639 33.8095C22.9596 33.7378 24.3548 33.595 25.743 33.4407C26.654 33.3395 27.5107 32.9812 28.4051 32.7774C29.3538 32.5613 30.4144 32.3104 31.3974 32.3431C31.5893 32.3495 32.2539 32.4364 32.3105 32.6912C32.3384 32.8167 32.497 32.8343 32.605 32.8726C33.0532 33.0313 33.4993 33.156 33.9643 33.2533C35.213 33.5147 36.501 34.1499 37.2154 35.2403C37.5605 35.767 36.7192 36.1158 36.332 36.2188C35.2513 36.5064 34.0482 36.1539 32.9679 35.9839C31.985 35.8291 31.0309 35.8926 30.047 35.9839C29.514 36.0333 29.1132 36.11 28.5627 36.0731C27.2978 35.9883 26.054 35.714 24.7941 35.5793C24.1444 35.5099 23.3732 35.3709 22.7269 35.5555C22.7245 35.5562 22.4216 35.6554 22.4443 35.6894C22.503 35.7774 22.6512 35.7371 22.7566 35.7459C23.4647 35.8049 24.1755 35.8247 24.8833 35.8887C26.1059 35.9992 27.3111 36.2488 28.5211 36.4479C28.8011 36.494 29.2339 36.6349 29.5235 36.5371C29.9955 36.3777 30.0925 35.855 30.4158 35.5318C30.4997 35.4479 30.7351 35.3416 30.5229 35.264C29.8153 35.0055 29.0085 34.9123 28.2683 34.8119C27.197 34.6667 25.9798 34.4527 24.8952 34.6335C24.7286 34.6612 24.6306 34.6727 25.0053 34.6751C26.5587 34.6851 28.1362 34.6851 29.6782 34.8952C30.3069 34.9809 30.9605 35.0835 31.558 35.3057C31.6878 35.354 31.7977 35.3893 31.8971 35.4842C32.1138 35.691 32.3773 35.8529 32.6169 36.0315C32.6696 36.0707 32.8965 36.1864 32.8965 36.2813C32.8965 36.594 32.2328 36.8418 32.0161 36.9178C30.8216 37.3371 29.7247 36.9096 28.5241 36.7037C27.4315 36.5163 26.4016 36.4878 25.2998 36.6591C24.7361 36.7467 24.182 36.8616 23.6341 37.019C23.4841 37.062 23.3021 37.0828 23.1968 37.2123C23.0986 37.3332 23.0445 37.538 22.9856 37.6793C22.9413 37.7858 22.8178 38.0202 23.0392 37.8726C23.3394 37.6725 23.6199 37.4311 23.9077 37.2153" stroke="white" stroke-width="3" stroke-linecap="round"/>
<path d="M23.3724 13.9254C22.7427 13.7426 21.7555 13.3426 21.0939 13.616C20.2455 13.9667 21.0161 14.9164 21.314 15.2996C21.6709 15.7583 22.0419 16.2495 22.5217 16.5875C22.7253 16.731 23.1325 17.0267 23.414 16.9652C23.708 16.9011 23.9435 16.4171 24.0565 16.1889C24.2853 15.7268 24.492 15.182 24.6216 14.6809C24.7805 14.0667 24.9778 13.2985 24.4164 12.8159C23.6606 12.1662 22.9571 14.1608 23.0214 14.6868C23.1449 15.6975 23.9112 16.8739 25.0559 16.7273C25.5536 16.6635 26.072 16.4952 26.2457 15.9807C26.4029 15.5151 26.3095 15.098 26.1832 14.6422C26.0937 14.3192 25.9487 13.4165 25.4842 13.4465C24.8717 13.486 24.4458 14.2623 24.1427 14.6987C23.8787 15.0789 23.6872 15.3643 23.6103 15.8409C23.5069 16.4818 23.3792 17.3441 23.8185 17.8933C24.3137 18.5122 24.9419 18.4245 25.1213 17.6851C25.3728 16.6487 25.5727 15.2602 24.9429 14.3001C24.4011 13.4743 23.3041 13.4511 22.4711 13.7647C21.741 14.0396 21.2172 14.7276 21.1623 15.5018C21.1132 16.1949 21.1316 16.9509 21.2843 17.6315C21.3774 18.0464 21.6513 18.2501 22.0101 18.4525C22.9284 18.9705 23.9126 18.995 24.9429 18.9165C25.8273 18.8491 25.6898 17.7113 25.4842 17.114C25.2751 16.5063 25.098 15.8409 24.7912 15.2728C24.6177 14.9516 24.4956 14.639 24.3896 14.2882C24.2044 13.6752 24.0546 12.685 23.2326 12.8932C22.6122 13.0504 22.4194 13.6128 22.254 14.1812C22.0354 14.9323 22.0311 15.5679 22.2361 16.3198C22.4131 16.9688 22.5876 17.646 23.2236 17.9825C23.7437 18.2577 24.414 18.4504 25.0083 18.4108C25.4364 18.3823 25.8934 18.2642 26.2962 18.1223C26.8664 17.9214 27.081 17.3668 27.1856 16.8046C27.3119 16.1259 27.0883 15.4117 26.9625 14.7493C26.8741 14.2835 26.8248 13.8005 26.5253 13.4167C26.3901 13.2435 26.0051 12.9224 26.5372 13.2412C27.312 13.7055 27.9609 14.241 28.5122 14.9545C28.7731 15.2921 28.8411 15.5941 29.0476 15.9748C29.1536 16.1702 29.6151 16.6481 29.5235 16.8998C29.4705 17.0455 29.3079 17.1999 29.1963 17.2924C28.7293 17.6797 28.1456 17.9417 27.6318 18.2621C26.8429 18.7541 26.0357 19.2382 25.2344 19.7077C24.771 19.9791 24.4183 20.2316 23.8631 20.3264C23.7458 20.3464 22.9426 20.5258 22.8964 20.3412C22.8471 20.1439 22.9675 19.6391 22.7834 19.5471" stroke="white" stroke-width="3" stroke-linecap="round"/>
<path d="M24.5 12.0458C26.8684 12.0458 28.7875 13.965 28.7875 16.3333C28.7875 18.7017 26.8684 20.6208 24.5 20.6208C22.1317 20.6208 20.2125 18.7017 20.2125 16.3333C20.2125 13.965 22.1317 12.0458 24.5 12.0458ZM24.5 30.4208C30.5638 30.4208 36.9542 33.4017 36.9542 34.7083V36.9542H12.0459V34.7083C12.0459 33.4017 18.4363 30.4208 24.5 30.4208ZM24.5 8.16667C19.9879 8.16667 16.3334 11.8213 16.3334 16.3333C16.3334 20.8454 19.9879 24.5 24.5 24.5C29.0121 24.5 32.6667 20.8454 32.6667 16.3333C32.6667 11.8213 29.0121 8.16667 24.5 8.16667ZM24.5 26.5417C19.0488 26.5417 8.16669 29.2775 8.16669 34.7083V40.8333H40.8334V34.7083C40.8334 29.2775 29.9513 26.5417 24.5 26.5417Z" fill="black"/>
</svg>
