<svg width="311" height="56" viewBox="0 0 311 56" fill="none" xmlns="http://www.w3.org/2000/svg">
<path d="M266 25.1429C269.156 25.1429 271.714 22.5845 271.714 19.4286C271.714 16.2727 269.156 13.7143 266 13.7143C262.844 13.7143 260.286 16.2727 260.286 19.4286C260.286 22.5845 262.844 25.1429 266 25.1429Z" fill="white" stroke="black" stroke-width="4.57143"/>
<path d="M276.286 16C279.442 16 282 13.4416 282 10.2857C282 7.1298 279.442 4.57143 276.286 4.57143C273.13 4.57143 270.571 7.1298 270.571 10.2857C270.571 13.4416 273.13 16 276.286 16Z" fill="white" stroke="black" stroke-width="4.57143"/>
<path d="M290 16C293.156 16 295.714 13.4416 295.714 10.2857C295.714 7.1298 293.156 4.57143 290 4.57143C286.844 4.57143 284.286 7.1298 284.286 10.2857C284.286 13.4416 286.844 16 290 16Z" fill="white" stroke="black" stroke-width="4.57143"/>
<path d="M300.286 25.1429C303.442 25.1429 306 22.5845 306 19.4286C306 16.2727 303.442 13.7143 300.286 13.7143C297.13 13.7143 294.571 16.2727 294.571 19.4286C294.571 22.5845 297.13 25.1429 300.286 25.1429Z" fill="white" stroke="black" stroke-width="4.57143"/>
<path d="M295.349 31.68C293.36 29.3486 291.691 27.36 289.68 25.0286C288.629 23.7943 287.28 22.56 285.68 22.0114C285.429 21.92 285.177 21.8514 284.926 21.8057C284.354 21.7143 283.737 21.7143 283.143 21.7143C282.549 21.7143 281.931 21.7143 281.337 21.8286C281.086 21.8743 280.834 21.9429 280.583 22.0343C278.983 22.5829 277.657 23.8171 276.583 25.0514C274.594 27.3829 272.926 29.3714 270.914 31.7029C267.92 34.6971 264.24 38.0114 264.926 42.6514C265.589 44.9829 267.257 47.2914 270.251 47.9543C271.92 48.2971 277.246 46.9486 282.914 46.9486H283.326C288.994 46.9486 294.32 48.2743 295.989 47.9543C298.983 47.2914 300.651 44.96 301.314 42.6514C302.023 37.9886 298.343 34.6743 295.349 31.68Z" fill="white" stroke="black" stroke-width="4.57143"/>
<path d="M30.8823 12.7886C31.6503 12.7886 32.2674 13.0354 32.7337 13.5291C33.2 13.9954 33.4331 14.6263 33.4331 15.4217V39.7783C33.4331 40.5463 33.2137 41.1497 32.7749 41.5886C32.336 42.0274 31.76 42.2469 31.0469 42.2469C30.3337 42.2469 29.7714 42.0274 29.36 41.5886C28.9486 41.1497 28.7429 40.5463 28.7429 39.7783V22.8274L21.7486 36.0754C21.4194 36.6789 21.0629 37.1314 20.6789 37.4331C20.2949 37.7074 19.8423 37.8446 19.3211 37.8446C18.8 37.8446 18.3474 37.7074 17.9634 37.4331C17.5794 37.1589 17.2229 36.7063 16.8937 36.0754L9.85829 23.0331V39.7783C9.85829 40.5189 9.63886 41.1223 9.2 41.5886C8.78857 42.0274 8.22629 42.2469 7.51314 42.2469C6.8 42.2469 6.23771 42.0274 5.82629 41.5886C5.41486 41.1497 5.20914 40.5463 5.20914 39.7783V15.4217C5.20914 14.6263 5.42857 13.9954 5.86743 13.5291C6.33371 13.0354 6.95086 12.7886 7.71886 12.7886C8.78857 12.7886 9.62514 13.3783 10.2286 14.5577L19.3623 31.9611L28.4549 14.5577C29.0583 13.3783 29.8674 12.7886 30.8823 12.7886ZM55.1492 21.4697C55.9446 21.4697 56.5755 21.6891 57.0418 22.128C57.508 22.5669 57.7412 23.1566 57.7412 23.8971V39.8606C57.7412 40.5737 57.4943 41.1497 57.0006 41.5886C56.5343 42.0274 55.9172 42.2469 55.1492 42.2469C54.4086 42.2469 53.8189 42.0411 53.38 41.6297C52.9412 41.2183 52.7218 40.656 52.7218 39.9429V38.9143C52.0909 40.0114 51.2406 40.8617 50.1709 41.4651C49.1012 42.0411 47.8943 42.3291 46.5503 42.3291C41.6132 42.3291 39.1446 39.5589 39.1446 34.0183V23.8971C39.1446 23.1566 39.3778 22.5669 39.844 22.128C40.3103 21.6891 40.9275 21.4697 41.6955 21.4697C42.4909 21.4697 43.1218 21.6891 43.588 22.128C44.0543 22.5669 44.2875 23.1566 44.2875 23.8971V34.0594C44.2875 35.4857 44.5755 36.5417 45.1515 37.2274C45.7275 37.9131 46.6326 38.256 47.8669 38.256C49.2932 38.256 50.4315 37.7897 51.2818 36.8571C52.1595 35.8971 52.5983 34.6354 52.5983 33.072V23.8971C52.5983 23.1566 52.8315 22.5669 53.2978 22.128C53.764 21.6891 54.3812 21.4697 55.1492 21.4697ZM79.8802 12.7886C80.6482 12.7886 81.2791 13.008 81.7728 13.4469C82.2665 13.8857 82.5134 14.4617 82.5134 15.1749V39.7783C82.5134 40.5189 82.2802 41.1086 81.8139 41.5474C81.3476 41.9863 80.7305 42.2057 79.9625 42.2057C79.1945 42.2057 78.5774 41.9863 78.1111 41.5474C77.6448 41.1086 77.4116 40.5189 77.4116 39.7783V38.7497C76.8082 39.8743 75.9305 40.752 74.7785 41.3829C73.6539 42.0137 72.3648 42.3291 70.9111 42.3291C69.1831 42.3291 67.6334 41.8903 66.2619 41.0126C64.9179 40.1349 63.8619 38.9006 63.0939 37.3097C62.3534 35.6914 61.9831 33.84 61.9831 31.7554C61.9831 29.6709 62.3534 27.8469 63.0939 26.2834C63.8619 24.72 64.9179 23.5131 66.2619 22.6629C67.6059 21.8126 69.1556 21.3874 70.9111 21.3874C72.3648 21.3874 73.6539 21.6891 74.7785 22.2926C75.9031 22.896 76.7671 23.7463 77.3705 24.8434V15.0926C77.3705 14.4069 77.5899 13.8583 78.0288 13.4469C78.4951 13.008 79.1122 12.7886 79.8802 12.7886ZM72.2688 38.3383C73.9145 38.3383 75.1762 37.776 76.0539 36.6514C76.9591 35.5269 77.4116 33.9223 77.4116 31.8377C77.4116 29.7531 76.9591 28.1623 76.0539 27.0651C75.1762 25.9406 73.9282 25.3783 72.3099 25.3783C70.6642 25.3783 69.3888 25.9269 68.4836 27.024C67.5785 28.1211 67.1259 29.6983 67.1259 31.7554C67.1259 33.84 67.5785 35.4583 68.4836 36.6103C69.3888 37.7623 70.6505 38.3383 72.2688 38.3383ZM104.59 12.7886C105.358 12.7886 105.989 13.008 106.483 13.4469C106.976 13.8857 107.223 14.4617 107.223 15.1749V39.7783C107.223 40.5189 106.99 41.1086 106.524 41.5474C106.057 41.9863 105.44 42.2057 104.672 42.2057C103.904 42.2057 103.287 41.9863 102.821 41.5474C102.355 41.1086 102.121 40.5189 102.121 39.7783V38.7497C101.518 39.8743 100.64 40.752 99.4883 41.3829C98.3637 42.0137 97.0746 42.3291 95.6209 42.3291C93.8929 42.3291 92.3432 41.8903 90.9717 41.0126C89.6277 40.1349 88.5717 38.9006 87.8037 37.3097C87.0632 35.6914 86.6929 33.84 86.6929 31.7554C86.6929 29.6709 87.0632 27.8469 87.8037 26.2834C88.5717 24.72 89.6277 23.5131 90.9717 22.6629C92.3157 21.8126 93.8655 21.3874 95.6209 21.3874C97.0746 21.3874 98.3637 21.6891 99.4883 22.2926C100.613 22.896 101.477 23.7463 102.08 24.8434V15.0926C102.08 14.4069 102.3 13.8583 102.739 13.4469C103.205 13.008 103.822 12.7886 104.59 12.7886ZM96.9786 38.3383C98.6243 38.3383 99.886 37.776 100.764 36.6514C101.669 35.5269 102.121 33.9223 102.121 31.8377C102.121 29.7531 101.669 28.1623 100.764 27.0651C99.886 25.9406 98.638 25.3783 97.0197 25.3783C95.374 25.3783 94.0986 25.9269 93.1935 27.024C92.2883 28.1211 91.8357 29.6983 91.8357 31.7554C91.8357 33.84 92.2883 35.4583 93.1935 36.6103C94.0986 37.7623 95.3603 38.3383 96.9786 38.3383ZM126.543 22.9509C126.763 22.4571 127.051 22.1006 127.407 21.8811C127.791 21.6343 128.203 21.5109 128.642 21.5109C129.272 21.5109 129.835 21.7303 130.328 22.1691C130.85 22.5806 131.11 23.1017 131.11 23.7326C131.11 24.0343 131.028 24.3497 130.863 24.6789L119.631 48.2126C119.165 49.1451 118.438 49.6114 117.451 49.6114C116.82 49.6114 116.258 49.4057 115.764 48.9943C115.298 48.6103 115.064 48.1166 115.064 47.5131C115.064 47.2114 115.147 46.8686 115.311 46.4846L118.109 40.6011L110.456 24.6789C110.319 24.4046 110.251 24.0891 110.251 23.7326C110.251 23.1017 110.511 22.5669 111.032 22.128C111.581 21.6891 112.198 21.4697 112.884 21.4697C113.35 21.4697 113.775 21.5931 114.159 21.84C114.543 22.0594 114.845 22.416 115.064 22.9097L120.824 35.6229L126.543 22.9509ZM148.425 42.2469C147.63 42.2469 146.985 42.0137 146.491 41.5474C146.025 41.0537 145.792 40.3954 145.792 39.5726V15.504C145.792 14.7086 146.011 14.0914 146.45 13.6526C146.917 13.2137 147.547 12.9943 148.343 12.9943H158.464C161.563 12.9943 163.977 13.776 165.705 15.3394C167.433 16.8754 168.297 19.0423 168.297 21.84C168.297 24.6377 167.433 26.8183 165.705 28.3817C163.977 29.9451 161.563 30.7269 158.464 30.7269H151.099V39.5726C151.099 40.3954 150.853 41.0537 150.359 41.5474C149.893 42.0137 149.248 42.2469 148.425 42.2469ZM157.806 26.6537C161.454 26.6537 163.278 25.0629 163.278 21.8811C163.278 18.6994 161.454 17.1086 157.806 17.1086H151.099V26.6537H157.806ZM180.7 21.3874C183.498 21.3874 185.569 22.0869 186.913 23.4857C188.284 24.8571 188.97 26.9554 188.97 29.7806V39.8194C188.97 40.56 188.75 41.1497 188.312 41.5886C187.873 42 187.269 42.2057 186.501 42.2057C185.788 42.2057 185.198 41.9863 184.732 41.5474C184.293 41.1086 184.074 40.5326 184.074 39.8194V38.9143C183.608 39.984 182.867 40.8206 181.852 41.424C180.865 42.0274 179.713 42.3291 178.396 42.3291C177.052 42.3291 175.832 42.0549 174.734 41.5063C173.637 40.9577 172.773 40.2034 172.142 39.2434C171.512 38.2834 171.196 37.2137 171.196 36.0343C171.196 34.5531 171.566 33.3874 172.307 32.5371C173.075 31.6869 174.309 31.0697 176.01 30.6857C177.71 30.3017 180.056 30.1097 183.045 30.1097H184.074V29.1634C184.074 27.8194 183.786 26.8457 183.21 26.2423C182.634 25.6114 181.701 25.296 180.412 25.296C179.617 25.296 178.808 25.4194 177.985 25.6663C177.162 25.8857 176.188 26.2149 175.064 26.6537C174.35 27.0103 173.829 27.1886 173.5 27.1886C173.006 27.1886 172.595 27.0103 172.266 26.6537C171.964 26.2971 171.813 25.8309 171.813 25.2549C171.813 24.7886 171.923 24.3909 172.142 24.0617C172.389 23.7051 172.787 23.376 173.336 23.0743C174.296 22.5531 175.434 22.1417 176.75 21.84C178.094 21.5383 179.411 21.3874 180.7 21.3874ZM179.425 38.6263C180.796 38.6263 181.907 38.1737 182.757 37.2686C183.635 36.336 184.074 35.1429 184.074 33.6891V32.8251H183.333C181.496 32.8251 180.069 32.9074 179.054 33.072C178.04 33.2366 177.313 33.5246 176.874 33.936C176.435 34.3474 176.216 34.9097 176.216 35.6229C176.216 36.5006 176.517 37.2274 177.121 37.8034C177.752 38.352 178.52 38.6263 179.425 38.6263ZM221.392 22.992C221.584 22.4983 221.858 22.128 222.215 21.8811C222.599 21.6343 223.01 21.5109 223.449 21.5109C224.08 21.5109 224.642 21.7303 225.136 22.1691C225.657 22.5806 225.918 23.1017 225.918 23.7326C225.918 24.0891 225.849 24.4046 225.712 24.6789L218.923 40.6011C218.704 41.1223 218.361 41.52 217.895 41.7943C217.456 42.0686 216.962 42.2057 216.414 42.2057C215.893 42.2057 215.399 42.0686 214.933 41.7943C214.494 41.52 214.165 41.1223 213.945 40.6011L209.049 28.8343L204.318 40.6011C204.098 41.1223 203.755 41.52 203.289 41.7943C202.85 42.0686 202.357 42.2057 201.808 42.2057C201.287 42.2057 200.793 42.0686 200.327 41.7943C199.861 41.52 199.518 41.1223 199.298 40.6011L192.551 24.6789C192.414 24.3223 192.345 24.0206 192.345 23.7737C192.345 23.1429 192.619 22.608 193.168 22.1691C193.717 21.7029 194.32 21.4697 194.978 21.4697C195.445 21.4697 195.87 21.5931 196.254 21.84C196.638 22.0869 196.926 22.4571 197.118 22.9509L201.973 35.4994L206.951 23.0743C207.17 22.5531 207.486 22.1691 207.897 21.9223C208.309 21.648 208.761 21.5109 209.255 21.5109C209.749 21.5109 210.201 21.648 210.613 21.9223C211.024 22.1691 211.339 22.5531 211.559 23.0743L216.578 35.5406L221.392 22.992ZM236.434 42.3291C233.445 42.3291 231.031 41.7394 229.193 40.56C228.315 40.0389 227.877 39.2983 227.877 38.3383C227.877 37.7897 228.027 37.3509 228.329 37.0217C228.631 36.6651 229.001 36.4869 229.44 36.4869C229.906 36.4869 230.551 36.7063 231.374 37.1451C232.251 37.5566 233.047 37.872 233.76 38.0914C234.501 38.3109 235.433 38.4206 236.558 38.4206C237.71 38.4206 238.601 38.2286 239.232 37.8446C239.89 37.4606 240.219 36.9257 240.219 36.24C240.219 35.7737 240.082 35.4034 239.808 35.1291C239.561 34.8549 239.095 34.608 238.409 34.3886C237.751 34.1417 236.736 33.8674 235.365 33.5657C232.923 33.072 231.168 32.3726 230.098 31.4674C229.056 30.5623 228.535 29.3143 228.535 27.7234C228.535 26.5166 228.891 25.4331 229.605 24.4731C230.318 23.4857 231.291 22.7314 232.526 22.2103C233.787 21.6617 235.214 21.3874 236.805 21.3874C237.957 21.3874 239.067 21.5383 240.137 21.84C241.207 22.1143 242.167 22.5257 243.017 23.0743C243.895 23.6229 244.334 24.3497 244.334 25.2549C244.334 25.8034 244.183 26.2697 243.881 26.6537C243.579 27.0103 243.209 27.1886 242.77 27.1886C242.469 27.1886 242.167 27.1337 241.865 27.024C241.591 26.8869 241.234 26.6949 240.795 26.448C240 26.0366 239.314 25.7349 238.738 25.5429C238.162 25.3234 237.449 25.2137 236.599 25.2137C235.584 25.2137 234.775 25.4194 234.171 25.8309C233.595 26.2423 233.307 26.8046 233.307 27.5177C233.307 28.2034 233.609 28.7246 234.213 29.0811C234.816 29.4377 235.982 29.7943 237.71 30.1509C239.547 30.5349 240.987 30.9737 242.03 31.4674C243.072 31.9611 243.813 32.5783 244.251 33.3189C244.718 34.0594 244.951 35.0057 244.951 36.1577C244.951 38.0229 244.169 39.5177 242.606 40.6423C241.07 41.7669 239.013 42.3291 236.434 42.3291Z" fill="white"/>
<path d="M32.7337 13.5291L29.4102 16.668L29.4551 16.7155L29.5012 16.7616L32.7337 13.5291ZM32.7749 41.5886L29.5424 38.3561L29.5424 38.3561L32.7749 41.5886ZM29.36 41.5886L32.695 38.462L29.36 41.5886ZM28.7429 22.8274H33.3143L24.7002 20.6931L28.7429 22.8274ZM21.7486 36.0754L25.7618 38.2645L25.7767 38.2372L25.7912 38.2097L21.7486 36.0754ZM20.6789 37.4331L23.3359 41.1531L23.421 41.0923L23.5032 41.0277L20.6789 37.4331ZM17.9634 37.4331L20.6205 33.7132H20.6205L17.9634 37.4331ZM16.8937 36.0754L20.9467 33.9608L20.9321 33.9329L20.9171 33.9051L16.8937 36.0754ZM9.85829 23.0331L13.8817 20.8628L5.28686 23.0331H9.85829ZM9.2 41.5886L5.87108 38.4555L5.86497 38.462L9.2 41.5886ZM5.82629 41.5886L9.16131 38.462L5.82629 41.5886ZM5.86743 13.5291L2.54393 10.3903L2.53851 10.396L5.86743 13.5291ZM10.2286 14.5577L6.15887 16.6399L6.16969 16.6611L6.18074 16.6821L10.2286 14.5577ZM19.3623 31.9611L15.3145 34.0855L19.3714 41.8157L23.414 34.078L19.3623 31.9611ZM28.4549 14.5577L32.5066 16.6746L32.5157 16.6573L32.5246 16.6399L28.4549 14.5577ZM30.8823 17.36C30.774 17.36 30.5319 17.3416 30.2234 17.2182C29.9026 17.0899 29.6222 16.8924 29.4102 16.668L36.0572 10.3903C34.6104 8.85838 32.7269 8.21714 30.8823 8.21714V17.36ZM29.5012 16.7616C29.2582 16.5186 29.0778 16.2276 28.9703 15.9367C28.8686 15.6615 28.8617 15.4683 28.8617 15.4217H38.0046C38.0046 13.6811 37.4619 11.7923 35.9662 10.2967L29.5012 16.7616ZM28.8617 15.4217V39.7783H38.0046V15.4217H28.8617ZM28.8617 39.7783C28.8617 39.7312 28.8682 39.531 28.9724 39.2446C29.0828 38.9408 29.273 38.6255 29.5424 38.3561L36.0073 44.8211C37.4975 43.3309 38.0046 41.4536 38.0046 39.7783H28.8617ZM29.5424 38.3561C29.7755 38.123 30.0677 37.9317 30.3863 37.8103C30.6928 37.6936 30.9333 37.6754 31.0469 37.6754V46.8183C32.7764 46.8183 34.5819 46.2465 36.0073 44.8211L29.5424 38.3561ZM31.0469 37.6754C31.1577 37.6754 31.4169 37.6928 31.7522 37.8236C32.104 37.9609 32.4328 38.1823 32.695 38.462L26.025 44.7152C27.4605 46.2464 29.3246 46.8183 31.0469 46.8183V37.6754ZM32.695 38.462C32.9598 38.7444 33.1301 39.0563 33.224 39.3318C33.3124 39.5908 33.3143 39.76 33.3143 39.7783H24.1714C24.1714 41.374 24.6171 43.2134 26.025 44.7152L32.695 38.462ZM33.3143 39.7783V22.8274H24.1714V39.7783H33.3143ZM24.7002 20.6931L17.706 33.9411L25.7912 38.2097L32.7855 24.9617L24.7002 20.6931ZM17.7353 33.8864C17.6707 34.0048 17.6365 34.0472 17.6435 34.0383C17.6505 34.0294 17.7161 33.9473 17.8545 33.8385L23.5032 41.0277C24.5305 40.2206 25.2482 39.2062 25.7618 38.2645L17.7353 33.8864ZM18.0218 33.7132C18.2358 33.5603 18.4765 33.4423 18.7257 33.3667C18.9706 33.2925 19.1779 33.2731 19.3211 33.2731V42.416C20.6909 42.416 22.0959 42.0388 23.3359 41.1531L18.0218 33.7132ZM19.3211 33.2731C19.4643 33.2731 19.6716 33.2925 19.9166 33.3667C20.1658 33.4423 20.4065 33.5603 20.6205 33.7132L15.3063 41.1531C16.5464 42.0388 17.9514 42.416 19.3211 42.416V33.2731ZM20.6205 33.7132C20.8478 33.8756 20.9663 34.0176 20.9988 34.0589C21.0317 34.1007 21.009 34.0804 20.9467 33.9608L12.8408 38.19C13.348 39.1622 14.1155 40.3024 15.3063 41.1531L20.6205 33.7132ZM20.9171 33.9051L13.8817 20.8628L5.83491 25.2035L12.8703 38.2458L20.9171 33.9051ZM5.28686 23.0331V39.7783H14.4297V23.0331H5.28686ZM5.28686 39.7783C5.28686 39.6962 5.29955 39.4934 5.39752 39.224C5.49953 38.9435 5.66348 38.6761 5.87109 38.4555L12.5289 44.7217C13.8905 43.275 14.4297 41.4878 14.4297 39.7783H5.28686ZM5.86497 38.462C6.1272 38.1823 6.45602 37.9609 6.80781 37.8236C7.14307 37.6928 7.40227 37.6754 7.51314 37.6754V46.8183C9.23542 46.8183 11.0995 46.2464 12.535 44.7152L5.86497 38.462ZM7.51314 37.6754C7.62402 37.6754 7.88322 37.6928 8.21848 37.8236C8.57026 37.9609 8.89909 38.1823 9.16131 38.462L2.49126 44.7152C3.92677 46.2464 5.79087 46.8183 7.51314 46.8183V37.6754ZM9.16131 38.462C9.42608 38.7444 9.5964 39.0563 9.69033 39.3318C9.77864 39.5908 9.78057 39.76 9.78057 39.7783H0.637714C0.637714 41.374 1.08336 43.2134 2.49126 44.7152L9.16131 38.462ZM9.78057 39.7783V15.4217H0.637714V39.7783H9.78057ZM9.78057 15.4217C9.78057 15.4403 9.77825 15.6042 9.69141 15.8538C9.59923 16.1188 9.43658 16.407 9.19634 16.6622L2.53851 10.396C1.11958 11.9037 0.637714 13.7576 0.637714 15.4217H9.78057ZM9.19092 16.668C8.97894 16.8924 8.6985 17.0899 8.37779 17.2182C8.06923 17.3416 7.82713 17.36 7.71886 17.36V8.21714C5.87422 8.21714 3.99075 8.85838 2.54394 10.3903L9.19092 16.668ZM7.71886 17.36C7.35587 17.36 6.90338 17.2412 6.51471 16.9673C6.17543 16.7281 6.09834 16.5216 6.15887 16.6399L14.2983 12.4755C13.136 10.2038 10.9448 8.21714 7.71886 8.21714V17.36ZM6.18074 16.6821L15.3145 34.0855L23.4101 29.8368L14.2764 12.4333L6.18074 16.6821ZM23.414 34.078L32.5066 16.6746L24.4031 12.4408L15.3105 29.8443L23.414 34.078ZM32.5246 16.6399C32.6011 16.4903 32.5375 16.6842 32.2068 16.9252C32.0354 17.0502 31.819 17.1671 31.566 17.2489C31.3136 17.3305 31.0779 17.36 30.8823 17.36V8.21714C27.6122 8.21714 25.4901 10.3159 24.3852 12.4755L32.5246 16.6399ZM57.0418 22.128L60.1748 18.7991L57.0418 22.128ZM57.0006 41.5886L53.9635 38.1718L53.9149 38.2151L53.8675 38.2597L57.0006 41.5886ZM53.38 41.6297L56.5066 38.2947L53.38 41.6297ZM52.7218 38.9143H57.2932V21.7931L48.7588 36.6356L52.7218 38.9143ZM50.1709 41.4651L52.3382 45.4902L52.3778 45.4688L52.4169 45.4468L50.1709 41.4651ZM39.844 22.128L42.9771 25.4569V25.4569L39.844 22.128ZM43.588 22.128L40.4549 25.4569L40.4549 25.4569L43.588 22.128ZM45.1515 37.2274L41.6511 40.1677L45.1515 37.2274ZM51.2817 36.8571L47.9079 33.7725L47.9037 33.7771L51.2817 36.8571ZM55.1492 26.0411C55.1306 26.0411 54.9667 26.0388 54.7171 25.952C54.452 25.8598 54.1639 25.6971 53.9087 25.4569L60.1748 18.7991C58.6672 17.3802 56.8133 16.8983 55.1492 16.8983V26.0411ZM53.9087 25.4569C53.6574 25.2205 53.448 24.9165 53.3151 24.5802C53.1877 24.2581 53.1698 24.0072 53.1698 23.8971H62.3126C62.3126 22.1118 61.7051 20.2393 60.1748 18.7991L53.9087 25.4569ZM53.1698 23.8971V39.8606H62.3126V23.8971H53.1698ZM53.1698 39.8606C53.1698 39.6831 53.2024 39.381 53.3542 39.0267C53.5098 38.6636 53.7359 38.3742 53.9635 38.1718L60.0377 45.0053C61.5915 43.6241 62.3126 41.7625 62.3126 39.8606H53.1698ZM53.8675 38.2597C54.1055 38.0356 54.3834 37.8722 54.6566 37.775C54.9163 37.6827 55.0994 37.6754 55.1492 37.6754V46.8183C56.8354 46.8183 58.6556 46.3086 60.1337 44.9175L53.8675 38.2597ZM55.1492 37.6754C55.1988 37.6754 55.3875 37.6822 55.6572 37.7762C55.9416 37.8755 56.2423 38.0469 56.5066 38.2947L50.2534 44.9647C51.7252 46.3445 53.5293 46.8183 55.1492 46.8183V37.6754ZM56.5066 38.2947C56.7863 38.5569 57.0077 38.8857 57.145 39.2375C57.2758 39.5728 57.2932 39.832 57.2932 39.9429H48.1503C48.1503 41.6651 48.7222 43.5292 50.2534 44.9647L56.5066 38.2947ZM57.2932 39.9429V38.9143H48.1503V39.9429H57.2932ZM48.7588 36.6356C48.5239 37.044 48.2573 37.296 47.9249 37.4835L52.4169 45.4468C54.2239 44.4274 55.6579 42.9789 56.6847 41.193L48.7588 36.6356ZM48.0036 37.4401C47.6686 37.6205 47.2197 37.7577 46.5503 37.7577V46.9006C48.5689 46.9006 50.5338 46.4618 52.3382 45.4902L48.0036 37.4401ZM46.5503 37.7577C44.9316 37.7577 44.5139 37.3278 44.409 37.2101C44.2147 36.9921 43.716 36.2055 43.716 34.0183H34.5732C34.5732 37.3717 35.3088 40.7405 37.583 43.2927C39.9468 45.9453 43.2319 46.9006 46.5503 46.9006V37.7577ZM43.716 34.0183V23.8971H34.5732V34.0183H43.716ZM43.716 23.8971C43.716 24.0072 43.698 24.2581 43.5707 24.5802C43.4377 24.9165 43.2284 25.2205 42.9771 25.4569L36.7109 18.7991C35.1807 20.2393 34.5732 22.1118 34.5732 23.8971H43.716ZM42.9771 25.4569C42.7391 25.6809 42.4613 25.8444 42.1881 25.9416C41.9283 26.0339 41.7452 26.0411 41.6955 26.0411V16.8983C40.0092 16.8983 38.189 17.408 36.7109 18.7991L42.9771 25.4569ZM41.6955 26.0411C41.6769 26.0411 41.513 26.0388 41.2634 25.952C40.9983 25.8598 40.7102 25.6971 40.4549 25.4569L46.7211 18.7991C45.2135 17.3802 43.3596 16.8983 41.6955 16.8983V26.0411ZM40.4549 25.4569C40.2037 25.2205 39.9943 24.9165 39.8614 24.5802C39.734 24.2581 39.716 24.0072 39.716 23.8971H48.8589C48.8589 22.1118 48.2514 20.2393 46.7211 18.7991L40.4549 25.4569ZM39.716 23.8971V34.0594H48.8589V23.8971H39.716ZM39.716 34.0594C39.716 35.9616 40.0766 38.2933 41.6511 40.1677L48.6518 34.2871C48.873 34.5505 48.9216 34.747 48.9138 34.7183C48.91 34.7045 48.8956 34.6462 48.8824 34.5329C48.8693 34.4199 48.8589 34.264 48.8589 34.0594H39.716ZM41.6511 40.1677C43.39 42.2378 45.8187 42.8274 47.8669 42.8274V33.6846C47.6576 33.6846 47.6963 33.6536 47.8816 33.7238C48.0991 33.8062 48.397 33.9837 48.6518 34.2871L41.6511 40.1677ZM47.8669 42.8274C50.3937 42.8274 52.826 41.9485 54.6598 39.9372L47.9037 33.7771C47.9071 33.7734 47.9257 33.7542 47.9599 33.7301C47.9944 33.7059 48.0293 33.6876 48.0574 33.676C48.0847 33.6649 48.0904 33.6662 48.0648 33.6709C48.038 33.6758 47.9746 33.6846 47.8669 33.6846V42.8274ZM54.6556 39.9418C56.4535 37.9754 57.1698 35.5338 57.1698 33.072H48.0269C48.0269 33.4276 47.9771 33.6155 47.9515 33.689C47.9303 33.7499 47.9165 33.7631 47.9079 33.7725L54.6556 39.9418ZM57.1698 33.072V23.8971H48.0269V33.072H57.1698ZM57.1698 23.8971C57.1698 24.0072 57.1518 24.2581 57.0244 24.5802C56.8915 24.9165 56.6821 25.2205 56.4308 25.4569L50.1647 18.7991C48.6344 20.2393 48.0269 22.1118 48.0269 23.8971H57.1698ZM56.4308 25.4569C56.1928 25.6809 55.915 25.8444 55.6418 25.9416C55.382 26.0339 55.1989 26.0411 55.1492 26.0411V16.8983C53.4629 16.8983 51.6427 17.408 50.1647 18.7991L56.4308 25.4569ZM81.7728 13.4469L78.7357 16.8636V16.8636L81.7728 13.4469ZM81.8139 41.5474L84.947 44.8763L84.947 44.8763L81.8139 41.5474ZM78.1111 41.5474L74.978 44.8763H74.978L78.1111 41.5474ZM77.4116 38.7497H81.9831L73.3835 36.5883L77.4116 38.7497ZM74.7785 41.3829L72.5828 37.3733L72.5623 37.3845L72.5419 37.3959L74.7785 41.3829ZM66.2619 41.0126L63.7623 44.8401L63.7799 44.8516L63.7977 44.863L66.2619 41.0126ZM63.0939 37.3097L58.9371 39.212L58.9567 39.2548L58.9771 39.2971L63.0939 37.3097ZM63.0939 26.2834L58.9908 24.2679L58.9765 24.2971L58.9626 24.3265L63.0939 26.2834ZM66.2619 22.6629L63.8179 18.7996L66.2619 22.6629ZM74.7785 22.2926L72.617 26.3207L72.6171 26.3207L74.7785 22.2926ZM77.3705 24.8434L73.3649 27.0465L81.9419 24.8434H77.3705ZM78.0288 13.4469L81.1554 16.7819L81.1619 16.7758L78.0288 13.4469ZM76.0539 36.6514L72.4927 33.7851L72.4713 33.8118L72.4502 33.8388L76.0539 36.6514ZM76.0539 27.0651L72.4502 29.8778L72.4883 29.9266L72.5276 29.9743L76.0539 27.0651ZM68.4836 27.024L64.9574 24.1148V24.1148L68.4836 27.024ZM68.4836 36.6103L72.0782 33.786L68.4836 36.6103ZM79.8802 17.36C79.8283 17.36 79.6614 17.3522 79.4276 17.2708C79.1836 17.186 78.9417 17.0467 78.7357 16.8636L84.8099 10.0301C83.3453 8.72828 81.5744 8.21714 79.8802 8.21714V17.36ZM78.7357 16.8636C78.508 16.6612 78.282 16.3718 78.1264 16.0088C77.9745 15.6544 77.9419 15.3523 77.9419 15.1749H87.0848C87.0848 13.273 86.3637 11.4113 84.8099 10.0301L78.7357 16.8636ZM77.9419 15.1749V39.7783H87.0848V15.1749H77.9419ZM77.9419 39.7783C77.9419 39.6682 77.9599 39.4173 78.0872 39.0953C78.2202 38.7589 78.4296 38.455 78.6808 38.2185L84.947 44.8763C86.4773 43.4361 87.0848 41.5636 87.0848 39.7783H77.9419ZM78.6808 38.2185C78.9189 37.9945 79.1967 37.831 79.4699 37.7339C79.7296 37.6415 79.9128 37.6343 79.9625 37.6343V46.7771C81.6487 46.7771 83.469 46.2675 84.947 44.8763L78.6808 38.2185ZM79.9625 37.6343C80.0122 37.6343 80.1954 37.6415 80.4551 37.7339C80.7283 37.831 81.0061 37.9945 81.2442 38.2185L74.978 44.8763C76.456 46.2675 78.2763 46.7771 79.9625 46.7771V37.6343ZM81.2442 38.2185C81.4954 38.455 81.7048 38.7589 81.8378 39.0953C81.9651 39.4173 81.9831 39.6682 81.9831 39.7783H72.8402C72.8402 41.5636 73.4477 43.4361 74.978 44.8763L81.2442 38.2185ZM81.9831 39.7783V38.7497H72.8402V39.7783H81.9831ZM73.3835 36.5883C73.2116 36.9085 72.9818 37.1548 72.5828 37.3733L76.9742 45.3924C78.8792 44.3492 80.4048 42.84 81.4398 40.9112L73.3835 36.5883ZM72.5419 37.3959C72.1839 37.5968 71.683 37.7577 70.9111 37.7577V46.9006C73.0465 46.9006 75.124 46.4307 77.0151 45.3698L72.5419 37.3959ZM70.9111 37.7577C70.0005 37.7577 69.3161 37.5397 68.7262 37.1622L63.7977 44.863C65.9506 46.2408 68.3657 46.9006 70.9111 46.9006V37.7577ZM68.7615 37.185C68.1828 36.8071 67.6546 36.2417 67.2107 35.3223L58.9771 39.2971C60.0693 41.5595 61.6531 43.4626 63.7623 44.8401L68.7615 37.185ZM67.2508 35.4074C66.8263 34.4798 66.5545 33.295 66.5545 31.7554H57.4116C57.4116 34.385 57.8805 36.9031 58.9371 39.212L67.2508 35.4074ZM66.5545 31.7554C66.5545 30.2111 66.8278 29.0796 67.2253 28.2404L58.9626 24.3265C57.8789 26.6141 57.4116 29.1306 57.4116 31.7554H66.5545ZM67.197 28.299C67.6297 27.4181 68.142 26.8829 68.706 26.5261L63.8179 18.7996C61.6939 20.1434 60.0941 22.0219 58.9908 24.2679L67.197 28.299ZM68.706 26.5261C69.244 26.1857 69.928 25.9589 70.9111 25.9589V16.816C68.3833 16.816 65.9679 17.4394 63.8179 18.7996L68.706 26.5261ZM70.9111 25.9589C71.7165 25.9589 72.2446 26.1209 72.617 26.3207L76.94 18.2644C75.0632 17.2574 73.013 16.816 70.9111 16.816V25.9589ZM72.6171 26.3207C72.9794 26.5152 73.1956 26.7387 73.3649 27.0465L81.3761 22.6404C80.3385 20.7539 78.8267 19.2768 76.94 18.2644L72.6171 26.3207ZM81.9419 24.8434V15.0926H72.7991V24.8434H81.9419ZM81.9419 15.0926C81.9419 15.2391 81.9176 15.5195 81.7795 15.8646C81.6363 16.2228 81.4147 16.5388 81.1554 16.7819L74.9022 10.1118C73.4088 11.5119 72.7991 13.3375 72.7991 15.0926H81.9419ZM81.1619 16.7758C80.9239 16.9998 80.646 17.1633 80.3728 17.2604C80.1131 17.3528 79.93 17.36 79.8802 17.36V8.21714C78.194 8.21714 76.3737 8.72683 74.8957 10.1179L81.1619 16.7758ZM72.2688 42.9097C75.0781 42.9097 77.7736 41.878 79.6577 39.4641L72.4502 33.8388C72.4458 33.8444 72.4594 33.8263 72.4932 33.7996C72.5276 33.7725 72.5626 33.7526 72.5885 33.741C72.6444 33.7161 72.5713 33.7669 72.2688 33.7669V42.9097ZM79.6151 39.5178C81.4095 37.2884 81.9831 34.5145 81.9831 31.8377H72.8402C72.8402 33.33 72.5087 33.7653 72.4927 33.7851L79.6151 39.5178ZM81.9831 31.8377C81.9831 29.1712 81.4137 26.3783 79.5802 24.156L72.5276 29.9743C72.5277 29.9743 72.5285 29.9753 72.53 29.9774C72.5316 29.9795 72.534 29.983 72.5373 29.9881C72.5438 29.998 72.5542 30.0153 72.5675 30.0416C72.5941 30.0943 72.6339 30.1868 72.6752 30.332C72.7603 30.631 72.8402 31.1139 72.8402 31.8377H81.9831ZM79.6577 24.2525C77.7895 21.8589 75.1213 20.8069 72.3099 20.8069V29.9497C72.4504 29.9497 72.535 29.9619 72.5742 29.9696C72.6116 29.977 72.6097 29.9805 72.5818 29.9679C72.5526 29.9548 72.5173 29.934 72.4846 29.9081C72.4526 29.8827 72.4421 29.8674 72.4502 29.8778L79.6577 24.2525ZM72.3099 20.8069C69.5392 20.8069 66.8727 21.7932 64.9574 24.1148L72.0099 29.9332C72.018 29.9234 72.0103 29.9344 71.9858 29.9529C71.9609 29.9716 71.9377 29.9839 71.9253 29.9892C71.8969 30.0014 71.9949 29.9497 72.3099 29.9497V20.8069ZM64.9574 24.1148C63.1316 26.3279 62.5545 29.0988 62.5545 31.7554H71.6974C71.6974 31.0504 71.7762 30.5808 71.8595 30.2906C71.8999 30.1495 71.9391 30.0589 71.9658 30.0063C71.9918 29.9551 72.0085 29.935 72.0099 29.9332L64.9574 24.1148ZM62.5545 31.7554C62.5545 34.4418 63.1319 37.1983 64.889 39.4346L72.0782 33.786C72.0251 33.7183 71.6974 33.2382 71.6974 31.7554H62.5545ZM64.889 39.4346C66.7595 41.8151 69.4154 42.9097 72.2688 42.9097V33.7669C72.1351 33.7669 72.0551 33.755 72.0185 33.7476C71.9836 33.7407 71.9841 33.7371 72.0073 33.7477C72.0315 33.7588 72.058 33.775 72.0796 33.7922C72.1003 33.8087 72.0987 33.8119 72.0782 33.786L64.889 39.4346ZM106.483 13.4469L103.446 16.8636V16.8636L106.483 13.4469ZM106.524 41.5474L109.657 44.8763L109.657 44.8763L106.524 41.5474ZM102.821 41.5474L99.6878 44.8763L102.821 41.5474ZM102.121 38.7497H106.693L98.0933 36.5883L102.121 38.7497ZM99.4883 41.3829L97.2926 37.3733L97.2721 37.3845L97.2517 37.3959L99.4883 41.3829ZM90.9717 41.0126L88.4721 44.8401L88.4898 44.8516L88.5075 44.863L90.9717 41.0126ZM87.8037 37.3097L83.6469 39.212L83.6665 39.2548L83.6869 39.2971L87.8037 37.3097ZM87.8037 26.2834L83.7006 24.2679L83.6863 24.2971L83.6724 24.3265L87.8037 26.2834ZM90.9717 22.6629L88.5277 18.7996L90.9717 22.6629ZM99.4883 22.2926L97.3269 26.3207V26.3207L99.4883 22.2926ZM102.08 24.8434L98.0748 27.0465L106.652 24.8434H102.08ZM102.739 13.4469L105.865 16.7819L105.872 16.7758L102.739 13.4469ZM100.764 36.6514L97.2026 33.7851L97.1811 33.8118L97.16 33.8388L100.764 36.6514ZM100.764 27.0651L97.16 29.8778L97.1981 29.9266L97.2375 29.9743L100.764 27.0651ZM93.1935 27.024L89.6672 24.1148V24.1148L93.1935 27.024ZM93.1935 36.6103L96.7881 33.786L93.1935 36.6103ZM104.59 17.36C104.538 17.36 104.371 17.3522 104.137 17.2708C103.893 17.186 103.652 17.0467 103.446 16.8636L109.52 10.0301C108.055 8.72828 106.284 8.21714 104.59 8.21714V17.36ZM103.446 16.8636C103.218 16.6612 102.992 16.3718 102.836 16.0088C102.684 15.6544 102.652 15.3523 102.652 15.1749H111.795C111.795 13.273 111.074 11.4113 109.52 10.0301L103.446 16.8636ZM102.652 15.1749V39.7783H111.795V15.1749H102.652ZM102.652 39.7783C102.652 39.6682 102.67 39.4173 102.797 39.0953C102.93 38.7589 103.139 38.455 103.391 38.2185L109.657 44.8763C111.187 43.4361 111.795 41.5636 111.795 39.7783H102.652ZM103.391 38.2185C103.629 37.9945 103.907 37.831 104.18 37.7339C104.439 37.6415 104.623 37.6343 104.672 37.6343V46.7771C106.359 46.7771 108.179 46.2675 109.657 44.8763L103.391 38.2185ZM104.672 37.6343C104.722 37.6343 104.905 37.6415 105.165 37.7339C105.438 37.831 105.716 37.9945 105.954 38.2185L99.6878 44.8763C101.166 46.2675 102.986 46.7771 104.672 46.7771V37.6343ZM105.954 38.2185C106.205 38.455 106.415 38.7589 106.548 39.0953C106.675 39.4173 106.693 39.6682 106.693 39.7783H97.55C97.55 41.5636 98.1575 43.4361 99.6878 44.8763L105.954 38.2185ZM106.693 39.7783V38.7497H97.55V39.7783H106.693ZM98.0933 36.5883C97.9214 36.9085 97.6916 37.1548 97.2926 37.3733L101.684 45.3924C103.589 44.3492 105.115 42.84 106.15 40.9112L98.0933 36.5883ZM97.2517 37.3959C96.8937 37.5968 96.3929 37.7577 95.6209 37.7577V46.9006C97.7564 46.9006 99.8338 46.4307 101.725 45.3698L97.2517 37.3959ZM95.6209 37.7577C94.7103 37.7577 94.0259 37.5397 93.436 37.1622L88.5075 44.863C90.6604 46.2408 93.0755 46.9006 95.6209 46.9006V37.7577ZM93.4714 37.185C92.8926 36.8071 92.3644 36.2417 91.9206 35.3223L83.6869 39.2971C84.7791 41.5595 86.3629 43.4626 88.4721 44.8401L93.4714 37.185ZM91.9606 35.4074C91.5361 34.4798 91.2643 33.295 91.2643 31.7554H82.1215C82.1215 34.385 82.5903 36.9031 83.6469 39.212L91.9606 35.4074ZM91.2643 31.7554C91.2643 30.2111 91.5376 29.0796 91.9351 28.2404L83.6724 24.3265C82.5888 26.6141 82.1215 29.1306 82.1215 31.7554H91.2643ZM91.9069 28.299C92.3396 27.4181 92.8518 26.8829 93.4158 26.5261L88.5277 18.7996C86.4037 20.1434 84.8039 22.0219 83.7006 24.2679L91.9069 28.299ZM93.4158 26.5261C93.9538 26.1857 94.6378 25.9589 95.6209 25.9589V16.816C93.0931 16.816 90.6777 17.4394 88.5277 18.7996L93.4158 26.5261ZM95.6209 25.9589C96.4264 25.9589 96.9545 26.1209 97.3269 26.3207L101.65 18.2644C99.773 17.2574 97.7229 16.816 95.6209 16.816V25.9589ZM97.3269 26.3207C97.6892 26.5152 97.9055 26.7387 98.0748 27.0465L106.086 22.6404C105.048 20.7539 103.537 19.2768 101.65 18.2644L97.3269 26.3207ZM106.652 24.8434V15.0926H97.5089V24.8434H106.652ZM106.652 15.0926C106.652 15.2391 106.627 15.5195 106.489 15.8646C106.346 16.2228 106.125 16.5388 105.865 16.7819L99.612 10.1118C98.1186 11.5119 97.5089 13.3375 97.5089 15.0926H106.652ZM105.872 16.7758C105.634 16.9998 105.356 17.1633 105.083 17.2604C104.823 17.3528 104.64 17.36 104.59 17.36V8.21714C102.904 8.21714 101.084 8.72683 99.6055 10.1179L105.872 16.7758ZM96.9786 42.9097C99.7879 42.9097 102.483 41.878 104.367 39.4641L97.16 33.8388C97.1556 33.8444 97.1692 33.8263 97.203 33.7996C97.2374 33.7725 97.2724 33.7526 97.2983 33.741C97.3543 33.7161 97.2811 33.7669 96.9786 33.7669V42.9097ZM104.325 39.5178C106.119 37.2884 106.693 34.5145 106.693 31.8377H97.55C97.55 33.33 97.2185 33.7653 97.2026 33.7851L104.325 39.5178ZM106.693 31.8377C106.693 29.1712 106.123 26.3783 104.29 24.156L97.2375 29.9743C97.2375 29.9743 97.2383 29.9753 97.2398 29.9774C97.2414 29.9795 97.2438 29.983 97.2471 29.9881C97.2536 29.998 97.264 30.0153 97.2773 30.0416C97.3039 30.0943 97.3438 30.1868 97.3851 30.332C97.4701 30.631 97.55 31.1139 97.55 31.8377H106.693ZM104.367 24.2525C102.499 21.8589 99.8311 20.8069 97.0198 20.8069V29.9497C97.1602 29.9497 97.2448 29.9619 97.284 29.9696C97.3215 29.977 97.3195 29.9805 97.2916 29.9679C97.2624 29.9548 97.2271 29.934 97.1944 29.9081C97.1624 29.8827 97.1519 29.8674 97.16 29.8778L104.367 24.2525ZM97.0198 20.8069C94.249 20.8069 91.5825 21.7932 89.6672 24.1148L96.7197 29.9332C96.7278 29.9234 96.7201 29.9344 96.6956 29.9529C96.6707 29.9716 96.6475 29.9839 96.6351 29.9892C96.6067 30.0014 96.7047 29.9497 97.0198 29.9497V20.8069ZM89.6672 24.1148C87.8414 26.3279 87.2643 29.0988 87.2643 31.7554H96.4072C96.4072 31.0504 96.486 30.5808 96.5693 30.2906C96.6098 30.1495 96.649 30.0589 96.6757 30.0063C96.7017 29.9551 96.7183 29.935 96.7197 29.9332L89.6672 24.1148ZM87.2643 31.7554C87.2643 34.4418 87.8417 37.1983 89.5989 39.4346L96.7881 33.786C96.7349 33.7183 96.4072 33.2382 96.4072 31.7554H87.2643ZM89.5989 39.4346C91.4693 41.8151 94.1252 42.9097 96.9786 42.9097V33.7669C96.8449 33.7669 96.7649 33.755 96.7283 33.7476C96.6934 33.7407 96.6939 33.7371 96.7171 33.7477C96.7413 33.7588 96.7678 33.775 96.7894 33.7922C96.8101 33.8087 96.8085 33.8119 96.7881 33.786L89.5989 39.4346ZM126.543 22.9509L130.71 24.8313L130.715 24.8194L130.721 24.8075L126.543 22.9509ZM127.407 21.8811L129.803 25.7744L129.841 25.7509L129.879 25.7265L127.407 21.8811ZM130.328 22.1691L127.291 25.5859L127.391 25.6745L127.496 25.7572L130.328 22.1691ZM130.863 24.6789L126.774 22.6345L126.756 22.672L126.738 22.7098L130.863 24.6789ZM119.631 48.2126L123.72 50.257L123.739 50.2195L123.757 50.1816L119.631 48.2126ZM115.764 48.9943L118.69 45.4824L118.68 45.4739L118.67 45.4655L115.764 48.9943ZM115.311 46.4846L111.183 44.5214L111.145 44.6019L111.109 44.6838L115.311 46.4846ZM118.109 40.6011L122.237 42.5643L123.176 40.5906L122.229 38.6209L118.109 40.6011ZM110.456 24.6789L114.577 22.6986L114.561 22.6664L114.545 22.6344L110.456 24.6789ZM111.032 22.128L108.177 18.5583L108.132 18.5942L108.088 18.6313L111.032 22.128ZM114.159 21.84L111.687 25.6854L111.788 25.7499L111.891 25.8091L114.159 21.84ZM115.064 22.9097L110.887 24.7663L110.894 24.7814L110.9 24.7963L115.064 22.9097ZM120.824 35.6229L116.66 37.5094L120.833 46.718L124.991 37.5033L120.824 35.6229ZM130.721 24.8075C130.674 24.9135 130.432 25.3873 129.803 25.7744L125.011 17.9878C123.669 18.8138 122.852 20.0008 122.366 21.0942L130.721 24.8075ZM129.879 25.7265C129.735 25.8196 129.546 25.9136 129.317 25.9821C129.088 26.051 128.857 26.0823 128.642 26.0823V16.9394C127.29 16.9394 126.025 17.335 124.935 18.0358L129.879 25.7265ZM128.642 26.0823C128.414 26.0823 128.147 26.0403 127.875 25.9341C127.605 25.8291 127.411 25.6924 127.291 25.5859L133.366 18.7524C132.078 17.6081 130.448 16.9394 128.642 16.9394V26.0823ZM127.496 25.7572C127.303 25.605 127.035 25.3316 126.826 24.913C126.613 24.4873 126.539 24.0669 126.539 23.7326H135.682C135.682 21.6198 134.714 19.8068 133.161 18.5811L127.496 25.7572ZM126.539 23.7326C126.539 23.1856 126.69 22.8028 126.774 22.6345L134.952 26.7233C135.365 25.8967 135.682 24.883 135.682 23.7326H126.539ZM126.738 22.7098L115.506 46.2435L123.757 50.1816L134.989 26.6479L126.738 22.7098ZM115.542 46.1682C115.601 46.0513 115.808 45.7092 116.268 45.414C116.743 45.1096 117.198 45.04 117.451 45.04V54.1829C118.691 54.1829 120.003 53.8801 121.205 53.1095C122.392 52.348 123.195 51.3064 123.72 50.257L115.542 46.1682ZM117.451 45.04C117.642 45.04 117.878 45.0731 118.127 45.164C118.374 45.2545 118.563 45.3765 118.69 45.4824L112.837 52.5062C114.136 53.5882 115.729 54.1829 117.451 54.1829V45.04ZM118.67 45.4655C118.901 45.6561 119.172 45.9589 119.373 46.384C119.574 46.8092 119.636 47.2116 119.636 47.5131H110.493C110.493 49.4842 111.338 51.2718 112.858 52.5231L118.67 45.4655ZM119.636 47.5131C119.636 47.7759 119.6 47.9756 119.571 48.0966C119.542 48.2171 119.514 48.2821 119.513 48.2853L111.109 44.6838C110.789 45.4323 110.493 46.403 110.493 47.5131H119.636ZM119.44 48.4477L122.237 42.5643L113.981 38.638L111.183 44.5214L119.44 48.4477ZM122.229 38.6209L114.577 22.6986L106.336 26.6591L113.989 42.5814L122.229 38.6209ZM114.545 22.6344C114.773 23.0907 114.822 23.4949 114.822 23.7326H105.679C105.679 24.6834 105.865 25.7185 106.368 26.7233L114.545 22.6344ZM114.822 23.7326C114.822 24.068 114.748 24.4667 114.556 24.8604C114.369 25.2447 114.134 25.4923 113.977 25.6247L108.088 18.6313C106.629 19.8598 105.679 21.6353 105.679 23.7326H114.822ZM113.888 25.6977C113.794 25.773 113.643 25.8688 113.438 25.9416C113.232 26.0148 113.038 26.0411 112.884 26.0411V16.8983C111.133 16.8983 109.514 17.4882 108.177 18.5583L113.888 25.6977ZM112.884 26.0411C112.709 26.0411 112.501 26.0172 112.278 25.9524C112.054 25.8874 111.854 25.7928 111.687 25.6854L116.631 17.9946C115.493 17.2631 114.207 16.8983 112.884 16.8983V26.0411ZM111.891 25.8091C111.257 25.4468 110.974 24.961 110.887 24.7663L119.242 21.0531C118.716 19.871 117.829 18.672 116.427 17.8709L111.891 25.8091ZM110.9 24.7963L116.66 37.5094L124.988 33.7363L119.228 21.0231L110.9 24.7963ZM124.991 37.5033L130.71 24.8313L122.377 21.0704L116.658 33.7424L124.991 37.5033ZM146.491 41.5474L143.168 44.6863L143.258 44.7812L143.353 44.8709L146.491 41.5474ZM146.45 13.6526L143.317 10.3237L143.267 10.3711L143.218 10.4201L146.45 13.6526ZM165.705 15.3394L162.638 18.7293L162.653 18.7428L162.668 18.7562L165.705 15.3394ZM165.705 28.3817L162.638 24.9918V24.9918L165.705 28.3817ZM151.099 30.7269V26.1554H146.528V30.7269H151.099ZM150.359 41.5474L147.126 38.3149L150.359 41.5474ZM151.099 17.1086V12.5371H146.528V17.1086H151.099ZM151.099 26.6537H146.528V31.2251H151.099V26.6537ZM148.425 37.6754C148.474 37.6754 148.651 37.683 148.9 37.7731C149.161 37.8676 149.417 38.0227 149.63 38.2239L143.353 44.8709C144.839 46.2743 146.676 46.8183 148.425 46.8183V37.6754ZM149.815 38.4086C150.032 38.638 150.186 38.9035 150.276 39.1573C150.361 39.3969 150.363 39.5546 150.363 39.5726H141.221C141.221 41.3013 141.737 43.1713 143.168 44.6863L149.815 38.4086ZM150.363 39.5726V15.504H141.221V39.5726H150.363ZM150.363 15.504C150.363 15.5198 150.362 15.7003 150.264 15.976C150.159 16.271 149.97 16.5979 149.683 16.8851L143.218 10.4201C141.698 11.9398 141.221 13.8538 141.221 15.504H150.363ZM149.583 16.9815C149.328 17.2217 149.04 17.3844 148.775 17.4766C148.525 17.5634 148.361 17.5657 148.343 17.5657V8.42286C146.679 8.42286 144.825 8.90473 143.317 10.3237L149.583 16.9815ZM148.343 17.5657H158.464V8.42286H148.343V17.5657ZM158.464 17.5657C160.811 17.5657 161.996 18.1482 162.638 18.7293L168.772 11.9496C165.958 9.40377 162.316 8.42286 158.464 8.42286V17.5657ZM162.668 18.7562C163.217 19.2443 163.726 20.0496 163.726 21.84H172.869C172.869 18.035 171.649 14.5065 168.742 11.9227L162.668 18.7562ZM163.726 21.84C163.726 23.6278 163.217 24.4677 162.638 24.9918L168.772 31.7716C171.649 29.1689 172.869 25.6477 172.869 21.84H163.726ZM162.638 24.9918C161.996 25.5729 160.811 26.1554 158.464 26.1554V35.2983C162.316 35.2983 165.958 34.3174 168.772 31.7716L162.638 24.9918ZM158.464 26.1554H151.099V35.2983H158.464V26.1554ZM146.528 30.7269V39.5726H155.671V30.7269H146.528ZM146.528 39.5726C146.528 39.5275 146.535 39.3417 146.634 39.0783C146.738 38.8008 146.909 38.5328 147.126 38.3149L153.591 44.7799C155.094 43.2771 155.671 41.3749 155.671 39.5726H146.528ZM147.126 38.3149C147.386 38.055 147.688 37.8754 147.971 37.7731C148.236 37.6773 148.41 37.6754 148.425 37.6754V46.8183C150.143 46.8183 152.067 46.3046 153.591 44.7799L147.126 38.3149ZM157.806 31.2251C160.193 31.2251 162.836 30.7182 164.915 28.9057C167.112 26.9891 167.849 24.3517 167.849 21.8811H158.706C158.706 22.2506 158.652 22.3721 158.666 22.3371C158.689 22.2749 158.766 22.1368 158.905 22.0154C159.031 21.9057 159.082 21.9198 158.924 21.9657C158.751 22.0158 158.4 22.0823 157.806 22.0823V31.2251ZM167.849 21.8811C167.849 19.4106 167.112 16.7732 164.915 14.8566C162.836 13.0441 160.193 12.5371 157.806 12.5371V21.68C158.4 21.68 158.751 21.7465 158.924 21.7965C159.082 21.8425 159.031 21.8566 158.905 21.7469C158.766 21.6254 158.689 21.4874 158.666 21.4251C158.652 21.3902 158.706 21.5117 158.706 21.8811H167.849ZM157.806 12.5371H151.099V21.68H157.806V12.5371ZM146.528 17.1086V26.6537H155.671V17.1086H146.528ZM151.099 31.2251H157.806V22.0823H151.099V31.2251ZM186.913 23.4857L183.616 26.6529L183.648 26.6859L183.68 26.7182L186.913 23.4857ZM188.312 41.5886L191.438 44.9236L191.492 44.8732L191.544 44.8211L188.312 41.5886ZM184.732 41.5474L181.5 44.7799L181.549 44.8289L181.599 44.8763L184.732 41.5474ZM184.074 38.9143H188.645L179.883 37.0876L184.074 38.9143ZM181.852 41.424L179.516 37.4947L179.492 37.5088L179.468 37.5233L181.852 41.424ZM174.734 41.5063L172.69 45.5951H172.69L174.734 41.5063ZM172.142 39.2434L168.322 41.754L172.142 39.2434ZM172.307 32.5371L168.915 29.473L168.887 29.5036L168.86 29.5347L172.307 32.5371ZM176.01 30.6857L175.003 26.2266H175.003L176.01 30.6857ZM184.074 30.1097V34.6811H188.645V30.1097H184.074ZM183.21 26.2423L179.834 29.3247L179.868 29.3621L179.903 29.3987L183.21 26.2423ZM177.985 25.6663L179.163 30.0834L179.231 30.0652L179.298 30.0449L177.985 25.6663ZM175.064 26.6537L173.402 22.3951L173.207 22.4712L173.019 22.5649L175.064 26.6537ZM172.266 26.6537L168.776 29.6066L168.84 29.6819L168.907 29.7544L172.266 26.6537ZM172.142 24.0617L168.384 21.4596L168.361 21.4926L168.339 21.5259L172.142 24.0617ZM173.336 23.0743L171.155 19.0567L171.144 19.0627L171.133 19.0687L173.336 23.0743ZM176.75 21.84L175.749 17.3796L175.739 17.3818L175.729 17.3841L176.75 21.84ZM182.757 37.2686L179.428 34.1355L179.425 34.1386L182.757 37.2686ZM184.074 32.8251H188.645V28.2537H184.074V32.8251ZM179.054 33.072L179.786 37.5845L179.054 33.072ZM176.874 33.936L180 37.271L176.874 33.936ZM177.121 37.8034L173.964 41.1102L174.041 41.1834L174.121 41.2531L177.121 37.8034ZM180.7 25.9589C182.809 25.9589 183.455 26.4854 183.616 26.6529L190.209 20.3185C187.682 17.6883 184.186 16.816 180.7 16.816V25.9589ZM183.68 26.7182C183.869 26.9074 184.398 27.6144 184.398 29.7806H193.541C193.541 26.2965 192.699 22.8069 190.145 20.2532L183.68 26.7182ZM184.398 29.7806V39.8194H193.541V29.7806H184.398ZM184.398 39.8194C184.398 39.7398 184.41 39.5196 184.521 39.2229C184.637 38.9113 184.828 38.6074 185.079 38.3561L191.544 44.8211C193.003 43.3622 193.541 41.5212 193.541 39.8194H184.398ZM185.185 38.2535C185.467 37.9888 185.779 37.8185 186.055 37.7245C186.314 37.6362 186.483 37.6343 186.501 37.6343V46.7771C188.097 46.7771 189.936 46.3315 191.438 44.9236L185.185 38.2535ZM186.501 37.6343C186.617 37.6343 186.84 37.6531 187.118 37.7567C187.405 37.8635 187.662 38.0275 187.865 38.2185L181.599 44.8763C183.012 46.2066 184.767 46.7771 186.501 46.7771V37.6343ZM187.965 38.3149C188.198 38.548 188.389 38.8403 188.51 39.1589C188.627 39.4654 188.645 39.7058 188.645 39.8194H179.502C179.502 41.549 180.074 43.3544 181.5 44.7799L187.965 38.3149ZM188.645 39.8194V38.9143H179.502V39.8194H188.645ZM179.883 37.0876C179.804 37.2685 179.718 37.3744 179.516 37.4947L184.188 45.3533C186.016 44.2667 187.411 42.6995 188.264 40.741L179.883 37.0876ZM179.468 37.5233C179.293 37.6302 178.99 37.7577 178.396 37.7577V46.9006C180.435 46.9006 182.436 46.4247 184.236 45.3247L179.468 37.5233ZM178.396 37.7577C177.693 37.7577 177.182 37.6192 176.779 37.4175L172.69 45.5951C174.481 46.4905 176.411 46.9006 178.396 46.9006V37.7577ZM176.779 37.4175C176.352 37.204 176.121 36.9737 175.963 36.7329L168.322 41.754C169.426 43.4332 170.923 44.7115 172.69 45.5951L176.779 37.4175ZM175.963 36.7329C175.836 36.5394 175.768 36.3468 175.768 36.0343H166.625C166.625 38.0807 167.188 40.0275 168.322 41.754L175.963 36.7329ZM175.768 36.0343C175.768 35.6677 175.814 35.4856 175.831 35.4331C175.843 35.3953 175.828 35.4544 175.754 35.5396L168.86 29.5347C167.192 31.4492 166.625 33.8016 166.625 36.0343H175.768ZM175.699 35.6013C175.633 35.6754 175.644 35.63 175.853 35.5254C176.068 35.4181 176.436 35.2759 177.017 35.1449L175.003 26.2266C172.833 26.7166 170.566 27.6442 168.915 29.473L175.699 35.6013ZM177.017 35.1449C178.234 34.8699 180.191 34.6811 183.045 34.6811V25.5383C179.921 25.5383 177.186 25.7335 175.003 26.2266L177.017 35.1449ZM183.045 34.6811H184.074V25.5383H183.045V34.6811ZM188.645 30.1097V29.1634H179.502V30.1097H188.645ZM188.645 29.1634C188.645 27.3284 188.278 24.9313 186.517 23.0858L179.903 29.3987C179.592 29.0727 179.492 28.7822 179.474 28.7217C179.466 28.693 179.474 28.7109 179.483 28.7886C179.493 28.8659 179.502 28.9884 179.502 29.1634H188.645ZM186.586 23.1599C184.784 21.1863 182.332 20.7246 180.412 20.7246V29.8674C180.704 29.8674 180.74 29.9056 180.614 29.863C180.46 29.8111 180.142 29.662 179.834 29.3247L186.586 23.1599ZM180.412 20.7246C179.138 20.7246 177.886 20.9231 176.671 21.2877L179.298 30.0449C179.729 29.9157 180.096 29.8674 180.412 29.8674V20.7246ZM176.807 21.2492C175.768 21.5263 174.625 21.9177 173.402 22.3951L176.725 30.9124C177.751 30.512 178.556 30.2452 179.163 30.0834L176.807 21.2492ZM173.019 22.5649C172.902 22.6233 172.812 22.6649 172.747 22.6932C172.68 22.722 172.652 22.7315 172.658 22.7295C172.661 22.7287 172.727 22.7058 172.845 22.681C172.955 22.6578 173.186 22.6171 173.5 22.6171V31.76C174.394 31.76 175.156 31.538 175.618 31.3802C176.136 31.2029 176.642 30.9756 177.108 30.7425L173.019 22.5649ZM173.5 22.6171C173.815 22.6171 174.215 22.6768 174.639 22.8603C175.064 23.0447 175.393 23.3022 175.625 23.553L168.907 29.7544C170.118 31.0669 171.756 31.76 173.5 31.76V22.6171ZM175.756 23.7008C176.304 24.3492 176.385 25.0107 176.385 25.2549H167.242C167.242 26.6511 167.624 28.2451 168.776 29.6066L175.756 23.7008ZM176.385 25.2549C176.385 25.5265 176.311 26.0495 175.946 26.5975L168.339 21.5259C167.535 22.7322 167.242 24.0507 167.242 25.2549H176.385ZM175.901 26.6638C175.746 26.8872 175.604 27.0163 175.54 27.0692C175.477 27.1217 175.465 27.1203 175.539 27.0798L171.133 19.0687C170.219 19.571 169.172 20.3212 168.384 21.4596L175.901 26.6638ZM175.517 27.0919C176.038 26.8091 176.768 26.5258 177.772 26.2959L175.729 17.3841C174.099 17.7576 172.554 18.2972 171.155 19.0567L175.517 27.0919ZM177.752 26.3004C178.789 26.0675 179.77 25.9589 180.7 25.9589V16.816C179.052 16.816 177.399 17.0091 175.749 17.3796L177.752 26.3004ZM179.425 43.1977C181.912 43.1977 184.28 42.3247 186.089 40.3985L179.425 34.1386C179.424 34.1399 179.438 34.1249 179.469 34.104C179.499 34.0827 179.532 34.0653 179.562 34.0533C179.59 34.0416 179.601 34.0412 179.584 34.0441C179.567 34.0473 179.516 34.0549 179.425 34.0549V43.1977ZM186.086 40.4017C187.871 38.5051 188.645 36.1376 188.645 33.6891H179.502C179.502 33.9538 179.463 34.0719 179.454 34.0962C179.451 34.104 179.449 34.1084 179.449 34.1102C179.448 34.112 179.447 34.1128 179.447 34.1132C179.447 34.1136 179.446 34.1152 179.443 34.1182C179.441 34.1212 179.436 34.127 179.428 34.1355L186.086 40.4017ZM188.645 33.6891V32.8251H179.502V33.6891H188.645ZM184.074 28.2537H183.333V37.3966H184.074V28.2537ZM183.333 28.2537C181.409 28.2537 179.697 28.3366 178.323 28.5595L179.786 37.5845C180.441 37.4783 181.582 37.3966 183.333 37.3966V28.2537ZM178.323 28.5595C176.977 28.7778 175.171 29.2659 173.747 30.601L180 37.271C179.845 37.4166 179.706 37.5122 179.609 37.5705C179.512 37.6285 179.448 37.6551 179.432 37.6614C179.416 37.6679 179.434 37.6593 179.497 37.6431C179.559 37.6269 179.654 37.606 179.786 37.5845L178.323 28.5595ZM173.747 30.601C172.216 32.0365 171.644 33.9006 171.644 35.6229H180.787C180.787 35.7337 180.77 35.9929 180.639 36.3282C180.502 36.68 180.28 37.0088 180 37.271L173.747 30.601ZM171.644 35.6229C171.644 37.6769 172.406 39.6224 173.964 41.1102L180.277 34.4967C180.407 34.6203 180.557 34.8159 180.664 35.0737C180.769 35.3264 180.787 35.5296 180.787 35.6229H171.644ZM174.121 41.2531C175.655 42.5872 177.516 43.1977 179.425 43.1977V34.0549C179.439 34.0549 179.547 34.0581 179.707 34.1155C179.873 34.1748 180.017 34.2639 180.12 34.3538L174.121 41.2531ZM221.392 22.992L217.131 21.3351L217.128 21.3449L217.124 21.3547L221.392 22.992ZM222.215 21.8811L219.743 18.0358L219.677 18.078L219.613 18.1225L222.215 21.8811ZM225.136 22.1691L222.099 25.5859L222.199 25.6745L222.303 25.7572L225.136 22.1691ZM225.712 24.6789L221.623 22.6345L221.561 22.7584L221.507 22.886L225.712 24.6789ZM218.923 40.6011L214.718 38.8082L214.714 38.8177L214.71 38.8272L218.923 40.6011ZM217.895 41.7943L215.577 37.854L215.524 37.8852L215.472 37.9177L217.895 41.7943ZM214.933 41.7943L212.51 45.6708L212.562 45.7034L212.615 45.7346L214.933 41.7943ZM213.945 40.6011L209.725 42.3573L209.728 42.3662L209.732 42.3751L213.945 40.6011ZM209.049 28.8343L213.27 27.0781L208.977 16.7606L204.808 27.1288L209.049 28.8343ZM204.318 40.6011L208.531 42.3751L208.545 42.341L208.559 42.3066L204.318 40.6011ZM203.289 41.7943L200.971 37.854L200.918 37.8852L200.866 37.9177L203.289 41.7943ZM200.327 41.7943L202.645 37.854L200.327 41.7943ZM199.298 40.6011L203.512 38.8272L203.507 38.8174L199.298 40.6011ZM192.551 24.6789L188.284 26.3199L188.312 26.3917L188.342 26.4626L192.551 24.6789ZM193.168 22.1691L196.024 25.7388L196.077 25.6963L196.129 25.6523L193.168 22.1691ZM196.254 21.84L193.782 25.6854V25.6854L196.254 21.84ZM197.118 22.9509L201.381 21.3014L201.378 21.294L197.118 22.9509ZM201.973 35.4994L197.709 37.1489L201.898 47.9766L206.216 37.1996L201.973 35.4994ZM206.951 23.0743L202.738 21.3003L202.722 21.3371L202.707 21.3741L206.951 23.0743ZM207.897 21.9223L210.249 25.8423L210.342 25.7863L210.433 25.7259L207.897 21.9223ZM210.613 21.9223L208.077 25.7259L208.167 25.7863L208.261 25.8423L210.613 21.9223ZM211.559 23.0743L215.799 21.3669L215.786 21.3335L215.772 21.3003L211.559 23.0743ZM216.578 35.5406L212.338 37.248L216.681 48.0358L220.846 37.1779L216.578 35.5406ZM225.653 24.6489C225.588 24.8152 225.363 25.262 224.817 25.6397L219.613 18.1225C218.354 18.994 217.58 20.1814 217.131 21.3351L225.653 24.6489ZM224.687 25.7265C224.542 25.8196 224.353 25.9136 224.125 25.9821C223.895 26.051 223.665 26.0823 223.449 26.0823V16.9394C222.097 16.9394 220.833 17.335 219.743 18.0358L224.687 25.7265ZM223.449 26.0823C223.222 26.0823 222.954 26.0403 222.682 25.9341C222.413 25.8291 222.219 25.6924 222.099 25.5859L228.173 18.7524C226.886 17.6081 225.256 16.9394 223.449 16.9394V26.0823ZM222.303 25.7572C222.111 25.605 221.843 25.3316 221.634 24.913C221.421 24.4873 221.346 24.0669 221.346 23.7326H230.489C230.489 21.6198 229.521 19.8068 227.969 18.5811L222.303 25.7572ZM221.346 23.7326C221.346 23.4949 221.395 23.0907 221.623 22.6345L229.801 26.7233C230.303 25.7185 230.489 24.6834 230.489 23.7326H221.346ZM221.507 22.886L214.718 38.8082L223.129 42.394L229.917 26.4718L221.507 22.886ZM214.71 38.8272C214.772 38.6812 214.876 38.4953 215.039 38.3054C215.204 38.1139 215.392 37.9628 215.577 37.854L220.213 45.7346C221.568 44.9375 222.554 43.7597 223.137 42.3751L214.71 38.8272ZM215.472 37.9177C215.621 37.8245 215.791 37.7483 215.972 37.6982C216.151 37.6486 216.304 37.6343 216.414 37.6343V46.7771C217.765 46.7771 219.108 46.4269 220.318 45.6709L215.472 37.9177ZM216.414 37.6343C216.56 37.6343 216.718 37.6542 216.876 37.6982C217.033 37.7419 217.16 37.8006 217.25 37.854L212.615 45.7346C213.756 46.4057 215.046 46.7771 216.414 46.7771V37.6343ZM217.355 37.9177C217.55 38.0396 217.73 38.1961 217.878 38.3757C218.025 38.5523 218.111 38.7147 218.158 38.8272L209.732 42.3751C210.282 43.6805 211.197 44.8506 212.51 45.6708L217.355 37.9177ZM218.166 38.845L213.27 27.0781L204.829 30.5904L209.725 42.3573L218.166 38.845ZM204.808 27.1288L200.076 38.8957L208.559 42.3066L213.291 30.5397L204.808 27.1288ZM200.105 38.8272C200.166 38.6812 200.27 38.4953 200.434 38.3054C200.599 38.1139 200.786 37.9628 200.971 37.854L205.607 45.7346C206.962 44.9375 207.948 43.7597 208.531 42.3751L200.105 38.8272ZM200.866 37.9177C201.015 37.8245 201.186 37.7483 201.366 37.6982C201.545 37.6486 201.698 37.6343 201.808 37.6343V46.7771C203.16 46.7771 204.502 46.4269 205.712 45.6708L200.866 37.9177ZM201.808 37.6343C201.954 37.6343 202.112 37.6542 202.27 37.6982C202.428 37.7419 202.554 37.8006 202.645 37.854L198.009 45.7346C199.15 46.4057 200.44 46.7771 201.808 46.7771V37.6343ZM202.645 37.854C202.83 37.9628 203.017 38.1139 203.182 38.3054C203.346 38.4953 203.45 38.6812 203.512 38.8272L195.085 42.3751C195.668 43.7597 196.654 44.9375 198.009 45.7346L202.645 37.854ZM203.507 38.8174L196.76 22.8952L188.342 26.4626L195.089 42.3848L203.507 38.8174ZM196.818 23.0378C196.81 23.0186 196.83 23.0666 196.854 23.172C196.878 23.2739 196.917 23.4832 196.917 23.7737H187.774C187.774 24.8023 188.044 25.6952 188.284 26.3199L196.818 23.0378ZM196.917 23.7737C196.917 24.1467 196.829 24.5752 196.619 24.9854C196.416 25.3815 196.169 25.6223 196.024 25.7388L190.312 18.5995C188.819 19.7938 187.774 21.5842 187.774 23.7737H196.917ZM196.129 25.6523C196.056 25.7141 195.907 25.8209 195.68 25.9088C195.446 25.9989 195.202 26.0411 194.978 26.0411V16.8983C193.131 16.8983 191.499 17.5879 190.207 18.686L196.129 25.6523ZM194.978 26.0411C194.803 26.0411 194.595 26.0172 194.372 25.9524C194.148 25.8874 193.949 25.7928 193.782 25.6854L198.726 17.9946C197.588 17.2631 196.301 16.8983 194.978 16.8983V26.0411ZM193.782 25.6854C193.527 25.5216 193.314 25.3209 193.149 25.1094C192.989 24.9032 192.901 24.7212 192.857 24.6078L201.378 21.294C200.894 20.0496 200.047 18.8442 198.726 17.9946L193.782 25.6854ZM192.854 24.6003L197.709 37.1489L206.236 33.85L201.381 21.3014L192.854 24.6003ZM206.216 37.1996L211.194 24.7745L202.707 21.3741L197.729 33.7992L206.216 37.1996ZM211.164 24.8483C211.126 24.9395 211.042 25.1048 210.885 25.2971C210.722 25.495 210.508 25.6868 210.249 25.8423L205.545 18.0023C204.16 18.8334 203.265 20.0491 202.738 21.3003L211.164 24.8483ZM210.433 25.7259C210.283 25.8262 210.093 25.9214 209.871 25.9887C209.649 26.056 209.437 26.0823 209.255 26.0823V16.9394C207.857 16.9394 206.523 17.3445 205.361 18.1186L210.433 25.7259ZM209.255 26.0823C209.072 26.0823 208.861 26.056 208.639 25.9887C208.417 25.9214 208.227 25.8262 208.077 25.7259L213.148 18.1186C211.987 17.3445 210.653 16.9394 209.255 16.9394V26.0823ZM208.261 25.8423C208.001 25.6868 207.788 25.495 207.625 25.2971C207.467 25.1048 207.384 24.9395 207.346 24.8483L215.772 21.3003C215.245 20.0491 214.35 18.8334 212.965 18.0023L208.261 25.8423ZM207.318 24.7817L212.338 37.248L220.819 33.8331L215.799 21.3669L207.318 24.7817ZM220.846 37.1779L225.66 24.6293L217.124 21.3547L212.31 33.9033L220.846 37.1779ZM229.193 40.56L231.662 36.7127L231.595 36.6698L231.527 36.6292L229.193 40.56ZM228.329 37.0217L231.699 40.1107L231.76 40.0439L231.819 39.9746L228.329 37.0217ZM231.374 37.1451L229.222 41.1788L229.327 41.2343L229.433 41.2844L231.374 37.1451ZM233.76 38.0914L232.416 42.4607L232.438 42.4677L232.461 42.4745L233.76 38.0914ZM239.232 37.8446L236.929 33.8959L236.892 33.9174L236.855 33.9397L239.232 37.8446ZM239.808 35.1291L236.41 38.1873L236.49 38.2766L236.575 38.3616L239.808 35.1291ZM238.409 34.3886L236.804 38.6689L236.909 38.7083L237.016 38.7425L238.409 34.3886ZM235.365 33.5657L236.347 29.1011L236.309 29.0927L236.271 29.085L235.365 33.5657ZM230.098 31.4674L227.101 34.919L227.123 34.9382L227.145 34.9572L230.098 31.4674ZM229.605 24.4731L233.274 27.1992L233.293 27.1746L233.311 27.1497L229.605 24.4731ZM232.526 22.2103L234.304 26.4217L234.326 26.4123L234.348 26.4026L232.526 22.2103ZM240.137 21.84L238.896 26.2398L238.949 26.2546L239.002 26.2682L240.137 21.84ZM243.017 23.0743L240.539 26.9156L240.566 26.9334L240.594 26.9509L243.017 23.0743ZM243.881 26.6537L247.371 29.6066L247.424 29.5433L247.476 29.478L243.881 26.6537ZM241.865 27.024L239.821 31.1128L240.056 31.2304L240.303 31.3202L241.865 27.024ZM240.795 26.448L243.037 22.4637L242.967 22.4244L242.896 22.3876L240.795 26.448ZM238.738 25.5429L237.111 29.8148L237.201 29.8492L237.293 29.8797L238.738 25.5429ZM234.171 25.8309L231.596 22.0538L231.555 22.0819L231.514 22.1109L234.171 25.8309ZM234.213 29.0811L231.887 33.0168L234.213 29.0811ZM237.71 30.1509L238.645 25.6761L238.634 25.6738L237.71 30.1509ZM242.03 31.4674L243.987 27.3361L242.03 31.4674ZM244.251 33.3189L240.319 35.6494L240.35 35.7024L240.383 35.7546L244.251 33.3189ZM242.606 40.6423L239.936 36.9312L239.921 36.9424L239.905 36.9538L242.606 40.6423ZM236.434 37.7577C234.007 37.7577 232.538 37.2749 231.662 36.7127L226.724 44.4073C229.523 46.2039 232.882 46.9006 236.434 46.9006V37.7577ZM231.527 36.6292C231.624 36.6871 231.901 36.8821 232.138 37.2832C232.384 37.6973 232.448 38.0951 232.448 38.3383H223.305C223.305 41.0322 224.701 43.2095 226.859 44.4908L231.527 36.6292ZM232.448 38.3383C232.448 38.4799 232.429 38.7469 232.313 39.0838C232.192 39.4346 231.989 39.7939 231.699 40.1107L224.959 33.9327C223.718 35.2873 223.305 36.9201 223.305 38.3383H232.448ZM231.819 39.9746C231.612 40.2196 231.284 40.5144 230.816 40.7394C230.341 40.9682 229.86 41.0583 229.44 41.0583V31.9154C227.561 31.9154 225.946 32.761 224.839 34.0688L231.819 39.9746ZM229.44 41.0583C229.204 41.0583 229.031 41.0312 228.937 41.0128C228.842 40.994 228.794 40.9769 228.8 40.979C228.805 40.9805 228.843 40.9941 228.919 41.0281C228.994 41.0617 229.094 41.1105 229.222 41.1788L233.525 33.1115C232.577 32.6059 231.092 31.9154 229.44 31.9154V41.0583ZM229.433 41.2844C230.45 41.7611 231.449 42.1633 232.416 42.4607L235.104 33.7222C234.645 33.5807 234.052 33.352 233.314 33.0059L229.433 41.2844ZM232.461 42.4745C233.768 42.8616 235.175 42.992 236.558 42.992V33.8491C235.692 33.8491 235.233 33.7601 235.059 33.7084L232.461 42.4745ZM236.558 42.992C238.118 42.992 239.967 42.7489 241.609 41.7495L236.855 33.9397C237.065 33.8119 237.187 33.7949 237.128 33.8076C237.068 33.8204 236.89 33.8491 236.558 33.8491V42.992ZM241.535 41.7933C243.409 40.7001 244.791 38.7589 244.791 36.24H235.648C235.648 35.8173 235.76 35.2782 236.079 34.7596C236.385 34.2634 236.746 34.0026 236.929 33.8959L241.535 41.7933ZM244.791 36.24C244.791 34.8234 244.341 33.1973 243.04 31.8967L236.575 38.3616C236.238 38.0244 235.986 37.6215 235.83 37.2003C235.679 36.7945 235.648 36.4529 235.648 36.24H244.791ZM243.206 32.071C242.11 30.8529 240.653 30.3069 239.802 30.0346L237.016 38.7425C237.187 38.7974 237.208 38.8176 237.134 38.7785C237.093 38.7565 237.003 38.7061 236.884 38.6195C236.767 38.5336 236.596 38.3937 236.41 38.1873L243.206 32.071ZM240.014 30.1082C239.04 29.7428 237.765 29.4131 236.347 29.1011L234.382 38.0304C235.707 38.3218 236.462 38.5406 236.804 38.6689L240.014 30.1082ZM236.271 29.085C234.08 28.642 233.237 28.1347 233.051 27.9777L227.145 34.9572C229.099 36.6104 231.766 37.502 234.458 38.0464L236.271 29.085ZM233.096 28.0158C233.087 28.0087 233.097 28.016 233.113 28.0383C233.13 28.0609 233.14 28.0812 233.144 28.091C233.154 28.1144 233.106 28.0191 233.106 27.7234H223.963C223.963 30.4146 224.901 33.0089 227.101 34.919L233.096 28.0158ZM233.106 27.7234C233.106 27.4888 233.152 27.3632 233.274 27.1992L225.935 21.7471C224.63 23.5031 223.963 25.5443 223.963 27.7234H233.106ZM233.311 27.1497C233.485 26.9074 233.761 26.6509 234.304 26.4217L230.748 17.9989C228.822 18.8119 227.15 20.064 225.899 21.7966L233.311 27.1497ZM234.348 26.4026C234.952 26.1402 235.744 25.9589 236.805 25.9589V16.816C234.684 16.816 232.623 17.1833 230.703 18.018L234.348 26.4026ZM236.805 25.9589C237.552 25.9589 238.245 26.0561 238.896 26.2398L241.378 17.4402C239.89 17.0205 238.361 16.816 236.805 16.816V25.9589ZM239.002 26.2682C239.638 26.4315 240.138 26.6568 240.539 26.9156L245.495 19.2329C244.196 18.3946 242.775 17.7971 241.273 17.4118L239.002 26.2682ZM240.594 26.9509C240.556 26.9268 240.315 26.7651 240.091 26.3937C239.851 25.9967 239.762 25.5779 239.762 25.2549H248.905C248.905 22.5238 247.428 20.4401 245.44 19.1977L240.594 26.9509ZM239.762 25.2549C239.762 25.1077 239.783 24.8809 239.871 24.6088C239.961 24.3306 240.103 24.0631 240.287 23.8294L247.476 29.478C248.488 28.1897 248.905 26.6944 248.905 25.2549H239.762ZM240.391 23.7008C240.599 23.4558 240.927 23.161 241.394 22.936C241.869 22.7073 242.351 22.6171 242.77 22.6171V31.76C244.649 31.76 246.264 30.9144 247.371 29.6066L240.391 23.7008ZM242.77 22.6171C243.035 22.6171 243.261 22.6672 243.427 22.7278L240.303 31.3202C241.073 31.6003 241.902 31.76 242.77 31.76V22.6171ZM243.91 22.9352C243.73 22.8455 243.446 22.694 243.037 22.4637L238.554 30.4323C239.022 30.6958 239.452 30.9283 239.821 31.1128L243.91 22.9352ZM242.896 22.3876C241.979 21.9132 241.063 21.4992 240.184 21.206L237.293 29.8797C237.565 29.9705 238.021 30.1599 238.695 30.5084L242.896 22.3876ZM240.366 21.2709C239.114 20.7939 237.809 20.6423 236.599 20.6423V29.7851C236.831 29.7851 236.986 29.8004 237.076 29.8143C237.167 29.8282 237.17 29.8373 237.111 29.8148L240.366 21.2709ZM236.599 20.6423C235.012 20.6423 233.202 20.9591 231.596 22.0538L236.747 29.6079C236.549 29.7427 236.397 29.7884 236.357 29.7985C236.325 29.8068 236.393 29.7851 236.599 29.7851V20.6423ZM231.514 22.1109C229.726 23.3881 228.736 25.3414 228.736 27.5177H237.879C237.879 27.7915 237.819 28.2023 237.592 28.6451C237.365 29.0892 237.062 29.3836 236.828 29.5508L231.514 22.1109ZM228.736 27.5177C228.736 29.8638 229.93 31.8602 231.887 33.0168L236.538 25.1455C236.801 25.3005 237.187 25.6096 237.49 26.1324C237.795 26.66 237.879 27.1698 237.879 27.5177H228.736ZM231.887 33.0168C233.224 33.8068 235.091 34.2783 236.786 34.628L238.634 25.6738C237.853 25.5127 237.278 25.3673 236.877 25.2445C236.425 25.1065 236.382 25.0532 236.538 25.1455L231.887 33.0168ZM236.775 34.6256C238.45 34.9757 239.495 35.3251 240.073 35.5988L243.987 27.3361C242.48 26.6223 240.645 26.094 238.645 25.6761L236.775 34.6256ZM240.073 35.5988C240.312 35.712 240.417 35.793 240.44 35.8124C240.458 35.8271 240.395 35.7777 240.319 35.6494L248.184 30.9883C247.147 29.2385 245.578 28.09 243.987 27.3361L240.073 35.5988ZM240.383 35.7546C240.266 35.5687 240.379 35.6007 240.379 36.1577H249.522C249.522 34.4107 249.169 32.5501 248.12 30.8831L240.383 35.7546ZM240.379 36.1577C240.379 36.4318 240.328 36.5325 240.314 36.5593C240.297 36.5913 240.222 36.7257 239.936 36.9312L245.275 44.3534C247.987 42.403 249.522 39.5496 249.522 36.1577H240.379ZM239.905 36.9538C239.388 37.3325 238.38 37.7577 236.434 37.7577V46.9006C239.645 46.9006 242.751 46.2012 245.306 44.3308L239.905 36.9538Z" fill="black"/>
</svg>
